<svg width="65" height="69" viewBox="0 0 65 69" fill="none" xmlns="http://www.w3.org/2000/svg">
<path d="M39.3849 31.9271C40.2185 31.9271 40.9968 31.8061 41.7212 31.5911C41.3581 32.8754 41.1268 34.1805 41.0444 35.4381C40.7391 35.2165 40.431 35.0039 40.1205 34.8011C37.8512 33.3188 35.1913 32.1889 32.4285 32.1889C29.6657 32.1889 27.0058 33.3188 24.7365 34.8011C24.5423 34.928 24.349 35.0587 24.1567 35.193C24.0569 34.0415 23.8257 32.8627 23.4857 31.7054C24.1116 31.8488 24.7735 31.9271 25.4722 31.9271C28.8305 31.9271 31.1122 29.8752 32.4285 27.734C33.7448 29.8752 36.0265 31.9271 39.3849 31.9271ZM49.847 21.5482C50.3225 19.8405 50.5735 18.1198 50.5735 16.5788C50.5735 14.1885 50.0155 11.4693 48.7497 9.22306C47.4734 6.95807 45.1277 4.67029 41.5816 4.67029C37.2604 4.67029 34.423 7.92088 32.893 10.6747C32.7587 10.9163 32.6294 11.1626 32.5052 11.4126C32.3394 11.056 32.1637 10.7065 31.9782 10.3659C30.4458 7.55262 27.6083 4.28809 23.2754 4.28809C19.7293 4.28809 17.3836 6.57587 16.1073 8.84086C14.8641 11.0471 14.3036 13.7096 14.2841 16.0685C14.175 17.7572 14.354 19.5963 14.7938 21.3973C14.1209 21.2098 13.4086 21.105 12.6578 21.105C9.5496 21.105 7.32568 22.8244 6.04527 24.9473C4.84249 26.9415 4.39819 29.3428 4.39819 31.4847C4.39819 34.7098 5.54575 38.3069 7.31079 41.1283C8.75088 43.4303 11.1399 46.0216 14.3819 46.6764C12.772 49.8082 11.7207 53.1689 11.7207 56.3279C11.7207 59.0981 12.7016 61.4765 14.7518 63.0331C16.6246 64.4549 18.8859 64.7966 20.7125 64.7966C23.6423 64.7966 26.1334 63.7813 27.9453 63.0429L28.0283 63.0091C30.0467 62.1868 31.2243 61.7389 32.4285 61.7389C33.4021 61.7389 34.4436 62.145 36.4052 62.9851L36.508 63.0291C38.2065 63.7571 40.6319 64.7966 43.4122 64.7966C45.0531 64.7966 47.4016 64.6077 49.4284 63.3871C51.7734 61.9748 53.1364 59.5313 53.1364 56.3279C53.1364 53.1916 52.1001 49.8564 50.5097 46.7438C54.0453 46.2284 56.5715 43.5681 58.0757 41.0861C59.8121 38.2209 60.825 34.6348 60.825 31.4847C60.825 29.2019 60.2289 26.8058 58.9933 24.8711C57.7444 22.9154 55.5796 21.105 52.5653 21.105C51.5917 21.105 50.6855 21.2662 49.847 21.5482Z" stroke="#FFC59E" stroke-width="7" stroke-linecap="round" stroke-linejoin="round"/>
</svg>
