<svg width="95" height="80" viewBox="0 0 95 80" fill="none" xmlns="http://www.w3.org/2000/svg">
<mask id="path-1-outside-1_27_648" maskUnits="userSpaceOnUse" x="0.174561" y="0.932129" width="95" height="79" fill="black">
<rect fill="white" x="0.174561" y="0.932129" width="95" height="79"/>
<path fill-rule="evenodd" clip-rule="evenodd" d="M23.4795 78.3725C12.976 78.3725 7.04316 67.1038 4.97925 62.2596C-0.752704 48.8487 0.0289255 34.9046 7.07381 24.962C8.15334 23.4384 9.34781 22.2778 10.0671 21.5788C10.3369 21.3167 10.5398 21.1195 10.6448 20.9924C12.8543 19.0533 15.4402 17.6371 18.2244 16.8416C20.4454 16.2069 23.3046 16.1362 24.0977 16.2051C26.184 16.3946 30.8734 18.3401 32.4912 21.0796C32.7829 21.5735 33.0178 22.1015 33.1911 22.6528C33.8934 25.1056 33.601 27.7518 32.3823 29.9733C35.834 29.3085 40.3552 27.6197 40.3552 23.2643V5.4875C40.3552 3.52392 41.88 1.93213 43.761 1.93213H44.492H50.5726H51.3036C53.1845 1.93213 54.7094 3.52392 54.7094 5.4875V23.2643C54.7094 27.6197 59.2305 29.3085 62.6823 29.9733C61.4636 27.7518 61.1712 25.1056 61.8734 22.6528C62.0467 22.1015 62.2817 21.5735 62.5733 21.0796C64.1911 18.3401 68.8806 16.3946 70.9669 16.2051C71.76 16.1362 74.6192 16.2069 76.8402 16.8416C79.6244 17.6371 82.2103 19.0533 84.4198 20.9924C84.5248 21.1195 84.7277 21.3167 84.9975 21.5788C85.7168 22.2778 86.9112 23.4385 87.9908 24.962C95.0357 34.9046 95.8173 48.8487 90.0853 62.2596C88.0214 67.1038 82.0885 78.3725 71.5851 78.3725C69.3308 78.3859 67.0948 77.951 64.9966 77.0908C64.8082 77.0191 64.3194 76.7151 63.7408 76.315C60.3963 74.4289 54.1559 69.2482 57.3742 56.344C58.4984 54.1605 60.0764 52.2672 61.9924 50.803C59.8375 50.0556 57.7388 49.1417 55.7139 48.0689L55.5112 47.9622C53.3068 46.8232 50.6841 46.0796 48.0308 45.8541C44.9925 45.9541 41.9389 46.7027 39.5015 47.9622L39.2988 48.0689C37.2739 49.1417 35.1752 50.0556 33.0202 50.803C34.9363 52.2672 36.5143 54.1605 37.6385 56.344C40.7626 68.8704 34.9737 74.1189 31.5728 76.1408C30.8888 76.625 30.2829 77.009 30.068 77.0908C27.9698 77.951 25.7337 78.3859 23.4795 78.3725ZM60.3825 69.0865C60.5024 69.2463 60.6263 69.4161 60.7553 69.593C61.7746 70.9905 63.1212 72.8368 65.453 73.7879C67.6481 74.6832 69.7614 74.83 71.5851 74.8171C80.0825 74.8171 85.181 65.0257 86.9741 60.8143C92.2003 48.5857 91.5566 35.973 85.2525 27.0757C82.0995 22.2872 76.813 19.5232 71.2513 19.7552C68.8162 19.9703 65.8599 21.3053 65.1209 23.739C64.5615 26.4066 65.5428 29.1699 67.6326 30.8124C68.179 31.2941 68.3789 32.0808 68.1329 32.7818C67.887 33.4829 67.2477 33.9488 66.5326 33.9482C65.911 33.9482 51.3104 33.8078 51.3104 23.2643V5.4875H43.7542V23.2643C43.7542 33.8078 29.1536 33.9482 28.532 33.9482C27.8169 33.9488 27.1776 33.4829 26.9316 32.7818C26.6857 32.0808 26.8856 31.2941 27.4319 30.8124C29.5218 29.1699 30.5031 26.4066 29.9437 23.739C29.2047 21.3053 26.2484 19.9703 23.8133 19.7552C18.2516 19.5232 12.965 22.2872 9.81207 27.0757C3.50794 35.973 2.86425 48.5857 8.09044 60.8143C9.88359 65.0257 14.9821 74.8171 23.4795 74.8171C25.3032 74.83 27.4165 74.6832 29.6116 73.7879C31.9434 72.8368 33.29 70.9905 34.3093 69.593L34.31 69.5921C34.403 69.4645 34.4933 69.3407 34.5814 69.2216C35.7052 66.143 36.1668 62.3206 34.6854 58.0079C33.0202 54.9407 30.6339 52.908 27.7191 51.6616C26.9903 51.3172 26.5894 50.4896 26.7556 49.6727C26.9219 48.8557 27.6105 48.2698 28.4105 48.2645C28.4113 48.264 28.4198 48.2633 28.436 48.2619C28.7446 48.2359 31.843 47.975 37.7764 44.878L37.9808 44.7713C40.9781 43.2214 44.2489 42.4842 47.5063 42.5599C50.7638 42.4842 54.0345 43.2214 57.0319 44.7713L57.2363 44.878C63.1697 47.975 66.2681 48.2359 66.5766 48.2619C66.5929 48.2633 66.6014 48.264 66.6022 48.2645C67.4022 48.2698 68.0908 48.8557 68.2571 49.6727C68.4233 50.4896 68.0224 51.3172 67.2936 51.6616C64.3788 52.908 61.9924 54.9407 60.3273 58.0079C58.8675 62.2578 59.2945 66.0315 60.3825 69.0865ZM48.8696 37.4861V30.3754C48.8696 29.3936 48.1072 28.5977 47.1667 28.5977C46.2262 28.5977 45.4638 29.3936 45.4638 30.3754V37.4861C45.4638 38.4679 46.2262 39.2638 47.1667 39.2638C48.1072 39.2638 48.8696 38.4679 48.8696 37.4861ZM12.5449 29.1891C10.5766 31.9957 9.21581 35.2153 8.55673 38.625C8.36362 39.5857 8.95289 40.5279 9.87307 40.7298C9.98851 40.7544 10.106 40.7669 10.2239 40.7671C11.0313 40.7648 11.7261 40.1708 11.8876 39.345C12.4488 36.4364 13.6066 33.6892 15.2815 31.2921C16.9985 28.6947 19.7508 27.0499 22.7657 26.8194C23.7062 26.8194 24.4686 26.0235 24.4686 25.0417C24.4686 24.0599 23.7062 23.2641 22.7657 23.2641C18.6641 23.4819 14.8902 25.6697 12.5449 29.1891ZM84.1381 55.9464C83.4791 59.3561 82.1183 62.5757 80.1499 65.3823C77.8046 68.9017 74.0307 71.0895 69.9292 71.3074C68.9887 71.3074 68.2263 70.5115 68.2263 69.5297C68.2263 68.5479 68.9887 67.752 69.9292 67.752C72.9441 67.5215 75.6964 65.8767 77.4134 63.2793C79.0883 60.8823 80.2461 58.135 80.8073 55.2264C80.9688 54.4006 81.6636 53.8067 82.471 53.8043C82.5888 53.8045 82.7064 53.817 82.8218 53.8416C83.742 54.0435 84.3313 54.9858 84.1381 55.9464Z"/>
</mask>
<path fill-rule="evenodd" clip-rule="evenodd" d="M23.4795 78.3725C12.976 78.3725 7.04316 67.1038 4.97925 62.2596C-0.752704 48.8487 0.0289255 34.9046 7.07381 24.962C8.15334 23.4384 9.34781 22.2778 10.0671 21.5788C10.3369 21.3167 10.5398 21.1195 10.6448 20.9924C12.8543 19.0533 15.4402 17.6371 18.2244 16.8416C20.4454 16.2069 23.3046 16.1362 24.0977 16.2051C26.184 16.3946 30.8734 18.3401 32.4912 21.0796C32.7829 21.5735 33.0178 22.1015 33.1911 22.6528C33.8934 25.1056 33.601 27.7518 32.3823 29.9733C35.834 29.3085 40.3552 27.6197 40.3552 23.2643V5.4875C40.3552 3.52392 41.88 1.93213 43.761 1.93213H44.492H50.5726H51.3036C53.1845 1.93213 54.7094 3.52392 54.7094 5.4875V23.2643C54.7094 27.6197 59.2305 29.3085 62.6823 29.9733C61.4636 27.7518 61.1712 25.1056 61.8734 22.6528C62.0467 22.1015 62.2817 21.5735 62.5733 21.0796C64.1911 18.3401 68.8806 16.3946 70.9669 16.2051C71.76 16.1362 74.6192 16.2069 76.8402 16.8416C79.6244 17.6371 82.2103 19.0533 84.4198 20.9924C84.5248 21.1195 84.7277 21.3167 84.9975 21.5788C85.7168 22.2778 86.9112 23.4385 87.9908 24.962C95.0357 34.9046 95.8173 48.8487 90.0853 62.2596C88.0214 67.1038 82.0885 78.3725 71.5851 78.3725C69.3308 78.3859 67.0948 77.951 64.9966 77.0908C64.8082 77.0191 64.3194 76.7151 63.7408 76.315C60.3963 74.4289 54.1559 69.2482 57.3742 56.344C58.4984 54.1605 60.0764 52.2672 61.9924 50.803C59.8375 50.0556 57.7388 49.1417 55.7139 48.0689L55.5112 47.9622C53.3068 46.8232 50.6841 46.0796 48.0308 45.8541C44.9925 45.9541 41.9389 46.7027 39.5015 47.9622L39.2988 48.0689C37.2739 49.1417 35.1752 50.0556 33.0202 50.803C34.9363 52.2672 36.5143 54.1605 37.6385 56.344C40.7626 68.8704 34.9737 74.1189 31.5728 76.1408C30.8888 76.625 30.2829 77.009 30.068 77.0908C27.9698 77.951 25.7337 78.3859 23.4795 78.3725ZM60.3825 69.0865C60.5024 69.2463 60.6263 69.4161 60.7553 69.593C61.7746 70.9905 63.1212 72.8368 65.453 73.7879C67.6481 74.6832 69.7614 74.83 71.5851 74.8171C80.0825 74.8171 85.181 65.0257 86.9741 60.8143C92.2003 48.5857 91.5566 35.973 85.2525 27.0757C82.0995 22.2872 76.813 19.5232 71.2513 19.7552C68.8162 19.9703 65.8599 21.3053 65.1209 23.739C64.5615 26.4066 65.5428 29.1699 67.6326 30.8124C68.179 31.2941 68.3789 32.0808 68.1329 32.7818C67.887 33.4829 67.2477 33.9488 66.5326 33.9482C65.911 33.9482 51.3104 33.8078 51.3104 23.2643V5.4875H43.7542V23.2643C43.7542 33.8078 29.1536 33.9482 28.532 33.9482C27.8169 33.9488 27.1776 33.4829 26.9316 32.7818C26.6857 32.0808 26.8856 31.2941 27.4319 30.8124C29.5218 29.1699 30.5031 26.4066 29.9437 23.739C29.2047 21.3053 26.2484 19.9703 23.8133 19.7552C18.2516 19.5232 12.965 22.2872 9.81207 27.0757C3.50794 35.973 2.86425 48.5857 8.09044 60.8143C9.88359 65.0257 14.9821 74.8171 23.4795 74.8171C25.3032 74.83 27.4165 74.6832 29.6116 73.7879C31.9434 72.8368 33.29 70.9905 34.3093 69.593L34.31 69.5921C34.403 69.4645 34.4933 69.3407 34.5814 69.2216C35.7052 66.143 36.1668 62.3206 34.6854 58.0079C33.0202 54.9407 30.6339 52.908 27.7191 51.6616C26.9903 51.3172 26.5894 50.4896 26.7556 49.6727C26.9219 48.8557 27.6105 48.2698 28.4105 48.2645C28.4113 48.264 28.4198 48.2633 28.436 48.2619C28.7446 48.2359 31.843 47.975 37.7764 44.878L37.9808 44.7713C40.9781 43.2214 44.2489 42.4842 47.5063 42.5599C50.7638 42.4842 54.0345 43.2214 57.0319 44.7713L57.2363 44.878C63.1697 47.975 66.2681 48.2359 66.5766 48.2619C66.5929 48.2633 66.6014 48.264 66.6022 48.2645C67.4022 48.2698 68.0908 48.8557 68.2571 49.6727C68.4233 50.4896 68.0224 51.3172 67.2936 51.6616C64.3788 52.908 61.9924 54.9407 60.3273 58.0079C58.8675 62.2578 59.2945 66.0315 60.3825 69.0865ZM48.8696 37.4861V30.3754C48.8696 29.3936 48.1072 28.5977 47.1667 28.5977C46.2262 28.5977 45.4638 29.3936 45.4638 30.3754V37.4861C45.4638 38.4679 46.2262 39.2638 47.1667 39.2638C48.1072 39.2638 48.8696 38.4679 48.8696 37.4861ZM12.5449 29.1891C10.5766 31.9957 9.21581 35.2153 8.55673 38.625C8.36362 39.5857 8.95289 40.5279 9.87307 40.7298C9.98851 40.7544 10.106 40.7669 10.2239 40.7671C11.0313 40.7648 11.7261 40.1708 11.8876 39.345C12.4488 36.4364 13.6066 33.6892 15.2815 31.2921C16.9985 28.6947 19.7508 27.0499 22.7657 26.8194C23.7062 26.8194 24.4686 26.0235 24.4686 25.0417C24.4686 24.0599 23.7062 23.2641 22.7657 23.2641C18.6641 23.4819 14.8902 25.6697 12.5449 29.1891ZM84.1381 55.9464C83.4791 59.3561 82.1183 62.5757 80.1499 65.3823C77.8046 68.9017 74.0307 71.0895 69.9292 71.3074C68.9887 71.3074 68.2263 70.5115 68.2263 69.5297C68.2263 68.5479 68.9887 67.752 69.9292 67.752C72.9441 67.5215 75.6964 65.8767 77.4134 63.2793C79.0883 60.8823 80.2461 58.135 80.8073 55.2264C80.9688 54.4006 81.6636 53.8067 82.471 53.8043C82.5888 53.8045 82.7064 53.817 82.8218 53.8416C83.742 54.0435 84.3313 54.9858 84.1381 55.9464Z" fill="#FFC59E"/>
<path d="M4.97925 62.2596L5.89923 61.8676L5.89878 61.8666L4.97925 62.2596ZM23.4795 78.3725L23.4855 77.3725H23.4795V78.3725ZM7.07381 24.962L6.25787 24.3839L7.07381 24.962ZM10.0671 21.5788L10.764 22.296V22.296L10.0671 21.5788ZM10.6448 20.9924L9.98515 20.2409L9.92494 20.2937L9.87391 20.3555L10.6448 20.9924ZM18.2244 16.8416L17.9496 15.88L18.2244 16.8416ZM24.0977 16.2051L24.1881 15.2092L24.1842 15.2089L24.0977 16.2051ZM32.4912 21.0796L31.6302 21.5881H31.6302L32.4912 21.0796ZM33.1911 22.6528L34.1525 22.3776L34.149 22.3652L34.1451 22.3529L33.1911 22.6528ZM32.3823 29.9733L31.5055 29.4923L30.4822 31.3577L32.5714 30.9553L32.3823 29.9733ZM62.6823 29.9733L62.4932 30.9553L64.5824 31.3577L63.5591 29.4923L62.6823 29.9733ZM61.8734 22.6528L60.9195 22.3529L60.9156 22.3652L60.9121 22.3776L61.8734 22.6528ZM62.5733 21.0796L63.4344 21.5881L62.5733 21.0796ZM70.9669 16.2051L70.8804 15.2089L70.8765 15.2092L70.9669 16.2051ZM76.8402 16.8416L76.5655 17.8031L76.8402 16.8416ZM84.4198 20.9924L85.1907 20.3555L85.1396 20.2937L85.0794 20.2409L84.4198 20.9924ZM84.9975 21.5788L85.6944 20.8617V20.8616L84.9975 21.5788ZM87.9908 24.962L88.8067 24.3839L87.9908 24.962ZM90.0853 62.2596L89.1658 61.8666L89.1654 61.8676L90.0853 62.2596ZM71.5851 78.3725V77.3725L71.5791 77.3725L71.5851 78.3725ZM64.9966 77.0908L65.3759 76.1655L65.3642 76.1608L65.3525 76.1563L64.9966 77.0908ZM63.7408 76.315L64.3096 75.4926L64.272 75.4665L64.2321 75.444L63.7408 76.315ZM57.3742 56.344L56.4851 55.8863L56.432 55.9894L56.4039 56.102L57.3742 56.344ZM61.9924 50.803L62.5996 51.5975L64.0779 50.4679L62.3201 49.8582L61.9924 50.803ZM55.7139 48.0689L56.182 47.1852L56.1796 47.184L55.7139 48.0689ZM55.5112 47.9622L55.977 47.0773L55.9703 47.0738L55.5112 47.9622ZM48.0308 45.8541L48.1155 44.8577L48.0568 44.8527L47.9979 44.8546L48.0308 45.8541ZM39.5015 47.9622L39.0424 47.0738L39.0357 47.0773L39.5015 47.9622ZM39.2988 48.0689L38.8331 47.184L38.8307 47.1852L39.2988 48.0689ZM33.0202 50.803L32.6925 49.8582L30.9348 50.4679L32.413 51.5975L33.0202 50.803ZM37.6385 56.344L38.6088 56.102L38.5807 55.9894L38.5276 55.8863L37.6385 56.344ZM31.5728 76.1408L31.0618 75.2812L31.0275 75.3016L30.995 75.3246L31.5728 76.1408ZM30.068 77.0908L29.7121 76.1563L29.7003 76.1608L29.6887 76.1655L30.068 77.0908ZM60.7553 69.593L61.5633 69.0038H61.5632L60.7553 69.593ZM60.3825 69.0865L59.4405 69.422L59.4914 69.5651L59.5826 69.6866L60.3825 69.0865ZM65.453 73.7879L65.8306 72.8619L65.453 73.7879ZM71.5851 74.8171V73.8171L71.578 73.8172L71.5851 74.8171ZM86.9741 60.8143L86.0546 60.4213L86.0541 60.4226L86.9741 60.8143ZM85.2525 27.0757L84.4173 27.6256L84.4267 27.6399L84.4366 27.6538L85.2525 27.0757ZM71.2513 19.7552L71.2096 18.756L71.1864 18.757L71.1633 18.7591L71.2513 19.7552ZM65.1209 23.739L64.164 23.4484L64.1512 23.4906L64.1422 23.5338L65.1209 23.739ZM67.6326 30.8124L68.294 30.0623L68.2728 30.0436L68.2506 30.0261L67.6326 30.8124ZM66.5326 33.9482L66.5334 32.9482H66.5326V33.9482ZM51.3104 5.4875H52.3104V4.4875H51.3104V5.4875ZM43.7542 5.4875V4.4875H42.7542V5.4875H43.7542ZM28.532 33.9482V32.9482L28.5312 32.9482L28.532 33.9482ZM26.9316 32.7818L25.988 33.1129V33.1129L26.9316 32.7818ZM27.4319 30.8124L26.814 30.0261L26.7918 30.0436L26.7706 30.0623L27.4319 30.8124ZM29.9437 23.739L30.9224 23.5338L30.9134 23.4906L30.9006 23.4484L29.9437 23.739ZM23.8133 19.7552L23.9013 18.7591L23.8782 18.757L23.855 18.756L23.8133 19.7552ZM9.81207 27.0757L10.628 27.6538L10.6379 27.6399L10.6473 27.6256L9.81207 27.0757ZM8.09044 60.8143L9.01051 60.4226L9.00998 60.4213L8.09044 60.8143ZM23.4795 74.8171L23.4866 73.8171H23.4795V74.8171ZM29.6116 73.7879L29.2339 72.8619L29.6116 73.7879ZM34.3093 69.593L33.5047 68.9992L33.5013 69.0038L34.3093 69.593ZM34.31 69.5921L35.1146 70.1859L35.1179 70.1813L34.31 69.5921ZM34.5814 69.2216L35.3853 69.8164L35.4713 69.7002L35.5208 69.5645L34.5814 69.2216ZM34.6854 58.0079L35.6312 57.6831L35.6041 57.6042L35.5642 57.5308L34.6854 58.0079ZM27.7191 51.6616L27.2919 52.5658L27.3088 52.5737L27.326 52.5811L27.7191 51.6616ZM26.7556 49.6727L27.7355 49.8721V49.8721L26.7556 49.6727ZM28.4105 48.2645L28.4171 49.2644L28.6834 49.2627L28.9136 49.1287L28.4105 48.2645ZM28.436 48.2619L28.5199 49.2584H28.52L28.436 48.2619ZM37.7764 44.878L37.3137 43.9915L37.3137 43.9915L37.7764 44.878ZM37.9808 44.7713L37.5215 43.883L37.5181 43.8848L37.9808 44.7713ZM47.5063 42.5599L47.4831 43.5597L47.5063 43.5602L47.5296 43.5597L47.5063 42.5599ZM57.0319 44.7713L57.4946 43.8848L57.4912 43.883L57.0319 44.7713ZM57.2363 44.878L57.699 43.9915L57.699 43.9915L57.2363 44.878ZM66.5766 48.2619L66.4927 49.2584H66.4927L66.5766 48.2619ZM66.6022 48.2645L66.101 49.1298L66.3304 49.2627L66.5955 49.2644L66.6022 48.2645ZM67.2936 51.6616L67.6867 52.5811L67.7039 52.5737L67.7208 52.5658L67.2936 51.6616ZM60.3273 58.0079L59.4484 57.5308L59.4086 57.6042L59.3815 57.6831L60.3273 58.0079ZM8.55673 38.625L9.53714 38.8221L9.53856 38.8148L8.55673 38.625ZM12.5449 29.1891L13.3636 29.7632L13.3705 29.7535L13.3771 29.7436L12.5449 29.1891ZM9.87307 40.7298L9.65876 41.7066L9.66431 41.7078L9.87307 40.7298ZM10.2239 40.7671L10.2223 41.7671L10.2268 41.7671L10.2239 40.7671ZM11.8876 39.345L12.869 39.5369L12.8695 39.5344L11.8876 39.345ZM15.2815 31.2921L16.1012 31.8648L16.1086 31.8543L16.1157 31.8435L15.2815 31.2921ZM22.7657 26.8194V25.8194H22.7275L22.6895 25.8223L22.7657 26.8194ZM22.7657 23.2641V22.2641H22.7392L22.7127 22.2655L22.7657 23.2641ZM80.1499 65.3823L79.3312 64.8082L79.3244 64.8179L79.3178 64.8278L80.1499 65.3823ZM84.1381 55.9464L83.1577 55.7493L83.1563 55.7566L84.1381 55.9464ZM69.9292 71.3074V72.3074H69.9557L69.9822 72.306L69.9292 71.3074ZM69.9292 67.752V68.752H69.9673L70.0054 68.7491L69.9292 67.752ZM77.4134 63.2793L76.5937 62.7066L76.5863 62.7172L76.5792 62.7279L77.4134 63.2793ZM80.8073 55.2264L79.8259 55.0345L79.8254 55.037L80.8073 55.2264ZM82.471 53.8043L82.4726 52.8043L82.4681 52.8043L82.471 53.8043ZM82.8218 53.8416L83.0361 52.8648L83.0306 52.8637L82.8218 53.8416ZM4.05927 62.6516C5.11084 65.1197 7.16095 69.2599 10.3184 72.7984C13.4773 76.3385 17.8362 79.3725 23.4795 79.3725V77.3725C18.6194 77.3725 14.7601 74.7722 11.8107 71.4668C8.85985 68.1599 6.91156 64.2437 5.89923 61.8676L4.05927 62.6516ZM6.25787 24.3839C-1.03036 34.6699 -1.7774 48.9957 4.05972 62.6526L5.89878 61.8666C0.271996 48.7018 1.08821 35.1393 7.88975 25.5402L6.25787 24.3839ZM9.37022 20.8616C8.64913 21.5623 7.39541 22.7784 6.25787 24.3839L7.88975 25.5402C8.91128 24.0985 10.0465 22.9932 10.764 22.296L9.37022 20.8616ZM9.87391 20.3555C9.81329 20.4288 9.66349 20.5767 9.37022 20.8616L10.764 22.296C11.0103 22.0567 11.2663 21.8101 11.4157 21.6294L9.87391 20.3555ZM17.9496 15.88C15.021 16.7169 12.3041 18.2056 9.98515 20.2409L11.3044 21.744C13.4045 19.9009 15.8594 18.5573 18.4991 17.8031L17.9496 15.88ZM24.1842 15.2089C23.2908 15.1313 20.3068 15.2065 17.9496 15.88L18.4991 17.8031C20.584 17.2073 23.3185 17.1412 24.0111 17.2014L24.1842 15.2089ZM33.3523 20.571C32.4026 18.9629 30.6294 17.684 28.9324 16.7994C27.2274 15.9106 25.4044 15.3197 24.1881 15.2092L24.0072 17.2011C24.8772 17.28 26.4421 17.7566 28.0079 18.5729C29.5816 19.3932 30.9621 20.4568 31.6302 21.5881L33.3523 20.571ZM34.1451 22.3529C33.9491 21.7293 33.6831 21.1312 33.3523 20.571L31.6302 21.5881C31.8827 22.0157 32.0866 22.4737 32.2372 22.9527L34.1451 22.3529ZM33.259 30.4543C34.6055 27.9999 34.9267 25.0818 34.1525 22.3776L32.2298 22.9281C32.86 25.1295 32.5965 27.5037 31.5055 29.4923L33.259 30.4543ZM39.3552 23.2643C39.3552 25.0243 38.4693 26.256 37.1053 27.1728C35.7068 28.1128 33.8667 28.669 32.1931 28.9914L32.5714 30.9553C34.3495 30.6128 36.4959 29.9922 38.221 28.8327C39.9805 27.65 41.3552 25.8597 41.3552 23.2643H39.3552ZM39.3552 5.4875V23.2643H41.3552V5.4875H39.3552ZM43.761 0.932129C41.2877 0.932129 39.3552 3.01258 39.3552 5.4875H41.3552C41.3552 4.03526 42.4724 2.93213 43.761 2.93213V0.932129ZM44.492 0.932129H43.761V2.93213H44.492V0.932129ZM50.5726 0.932129H44.492V2.93213H50.5726V0.932129ZM51.3036 0.932129H50.5726V2.93213H51.3036V0.932129ZM55.7094 5.4875C55.7094 3.01258 53.7769 0.932129 51.3036 0.932129V2.93213C52.5922 2.93213 53.7094 4.03526 53.7094 5.4875H55.7094ZM55.7094 23.2643V5.4875H53.7094V23.2643H55.7094ZM62.8715 28.9914C61.1978 28.669 59.3578 28.1128 57.9593 27.1728C56.5953 26.256 55.7094 25.0243 55.7094 23.2643H53.7094C53.7094 25.8597 55.084 27.65 56.8436 28.8327C58.5686 29.9922 60.715 30.6128 62.4932 30.9553L62.8715 28.9914ZM60.9121 22.3776C60.1378 25.0818 60.4591 27.9999 61.8056 30.4543L63.5591 29.4923C62.4681 27.5037 62.2045 25.1295 62.8348 22.9281L60.9121 22.3776ZM61.7123 20.571C61.3815 21.1312 61.1155 21.7293 60.9195 22.3529L62.8274 22.9527C62.978 22.4737 63.1818 22.0157 63.4344 21.5881L61.7123 20.571ZM70.8765 15.2092C69.6602 15.3197 67.8372 15.9106 66.1322 16.7994C64.4352 17.684 62.662 18.9629 61.7123 20.571L63.4344 21.5881C64.1025 20.4568 65.4829 19.3932 67.0567 18.5729C68.6225 17.7566 70.1874 17.28 71.0573 17.2011L70.8765 15.2092ZM77.1149 15.88C74.7578 15.2065 71.7738 15.1313 70.8804 15.2089L71.0535 17.2014C71.7461 17.1412 74.4805 17.2073 76.5655 17.8031L77.1149 15.88ZM85.0794 20.2409C82.7605 18.2056 80.0436 16.7169 77.1149 15.88L76.5655 17.8031C79.2052 18.5573 81.6601 19.9009 83.7602 21.744L85.0794 20.2409ZM85.6944 20.8616C85.4011 20.5767 85.2513 20.4288 85.1907 20.3555L83.6489 21.6294C83.7982 21.8101 84.0543 22.0567 84.3006 22.296L85.6944 20.8616ZM88.8067 24.3839C87.6692 22.7785 86.4155 21.5623 85.6944 20.8617L84.3006 22.296C85.0181 22.9932 86.1533 24.0985 87.1748 25.5402L88.8067 24.3839ZM91.0049 62.6526C96.842 48.9957 96.0949 34.6699 88.8067 24.3839L87.1748 25.5402C93.9764 35.1393 94.7926 48.7018 89.1658 61.8666L91.0049 62.6526ZM71.5851 79.3725C77.2284 79.3725 81.5873 76.3385 84.7462 72.7984C87.9036 69.2599 89.9537 65.1197 91.0053 62.6516L89.1654 61.8676C88.153 64.2437 86.2047 68.1599 83.2539 71.4668C80.3045 74.7722 76.4452 77.3725 71.5851 77.3725V79.3725ZM64.6173 78.0161C66.837 78.926 69.2039 79.3867 71.591 79.3725L71.5791 77.3725C69.4578 77.3852 67.3527 76.9759 65.3759 76.1655L64.6173 78.0161ZM63.1721 77.1375C63.4709 77.3442 63.7524 77.5301 63.9888 77.6764C64.1981 77.806 64.4444 77.9506 64.6406 78.0253L65.3525 76.1563C65.3604 76.1593 65.2681 76.1161 65.0413 75.9757C64.8415 75.8521 64.5893 75.686 64.3096 75.4926L63.1721 77.1375ZM56.4039 56.102C54.7481 62.7414 55.5006 67.5142 57.2025 70.9094C58.8968 74.2898 61.4714 76.1833 63.2496 77.1861L64.2321 75.444C62.6657 74.5607 60.4478 72.9208 58.9904 70.0132C57.5405 67.1205 56.782 62.8509 58.3445 56.586L56.4039 56.102ZM61.3852 50.0084C59.3492 51.5644 57.6759 53.5735 56.4851 55.8863L58.2633 56.8018C59.3209 54.7475 60.8035 52.9701 62.5996 51.5975L61.3852 50.0084ZM55.2457 48.9526C57.3157 50.0492 59.4613 50.9835 61.6647 51.7478L62.3201 49.8582C60.2137 49.1276 58.162 48.2342 56.182 47.1852L55.2457 48.9526ZM55.0455 48.8472L55.2481 48.9538L56.1796 47.184L55.977 47.0773L55.0455 48.8472ZM47.9462 46.8505C50.4767 47.0655 52.9711 47.7753 55.0522 48.8507L55.9703 47.0738C53.6425 45.871 50.8916 45.0936 48.1155 44.8577L47.9462 46.8505ZM39.9605 48.8507C42.2505 47.6674 45.1555 46.9493 48.0637 46.8535L47.9979 44.8546C44.8295 44.9589 41.6274 45.7381 39.0424 47.0738L39.9605 48.8507ZM39.7646 48.9538L39.9672 48.8472L39.0357 47.0773L38.8331 47.184L39.7646 48.9538ZM33.3479 51.7478C35.5514 50.9835 37.697 50.0492 39.767 48.9526L38.8307 47.1852C36.8507 48.2342 34.799 49.1276 32.6925 49.8582L33.3479 51.7478ZM38.5276 55.8863C37.3368 53.5735 35.6635 51.5644 33.6274 50.0084L32.413 51.5975C34.2092 52.9701 35.6918 54.7475 36.7494 56.8018L38.5276 55.8863ZM32.0838 77.0003C33.8944 75.9239 36.3635 73.9747 37.9564 70.6094C39.5547 67.2326 40.2159 62.5459 38.6088 56.102L36.6682 56.586C38.1852 62.6686 37.514 66.8693 36.1487 69.7538C34.7779 72.6498 32.6521 74.3357 31.0618 75.2812L32.0838 77.0003ZM30.4239 78.0253C30.6403 77.9429 30.9285 77.7702 31.1787 77.612C31.4607 77.4338 31.798 77.2065 32.1506 76.957L30.995 75.3246C30.6636 75.5592 30.3559 75.7661 30.1102 75.9214C29.8328 76.0967 29.7106 76.1569 29.7121 76.1563L30.4239 78.0253ZM23.4736 79.3725C25.8607 79.3867 28.2276 78.926 30.4473 78.0161L29.6887 76.1655C27.7119 76.9759 25.6068 77.3852 23.4855 77.3725L23.4736 79.3725ZM61.5632 69.0038C61.435 68.828 61.3071 68.6526 61.1825 68.4864L59.5826 69.6866C59.6977 69.84 59.8175 70.0042 59.9474 70.1823L61.5632 69.0038ZM65.8306 72.8619C63.7928 72.0308 62.593 70.4156 61.5633 69.0038L59.9474 70.1823C60.9562 71.5655 62.4497 73.6429 65.0753 74.7138L65.8306 72.8619ZM71.578 73.8172C69.8124 73.8296 67.8501 73.6856 65.8306 72.8619L65.0753 74.7138C67.4461 75.6808 69.7104 75.8304 71.5921 75.8171L71.578 73.8172ZM86.0541 60.4226C85.1756 62.4858 83.5006 65.88 81.0359 68.7425C78.5655 71.6117 75.4186 73.8171 71.5851 73.8171V75.8171C76.2489 75.8171 79.9001 73.1268 82.5515 70.0475C85.2087 66.9614 86.9796 63.3542 87.8942 61.2061L86.0541 60.4226ZM84.4366 27.6538C90.4933 36.2019 91.179 48.4309 86.0546 60.4213L87.8937 61.2073C93.2217 48.7404 92.62 35.744 86.0685 26.4975L84.4366 27.6538ZM71.293 20.7543C76.4911 20.5375 81.4504 23.1197 84.4173 27.6256L86.0877 26.5257C82.7487 21.4547 77.1349 18.5089 71.2096 18.756L71.293 20.7543ZM66.0777 24.0295C66.3513 23.1288 67.0577 22.362 68.0552 21.7781C69.0504 21.1956 70.2529 20.8473 71.3393 20.7513L71.1633 18.7591C69.8145 18.8782 68.3214 19.3049 67.0449 20.0521C65.7708 20.7979 64.6295 21.9155 64.164 23.4484L66.0777 24.0295ZM68.2506 30.0261C66.4693 28.6262 65.6158 26.2517 66.0996 23.9442L64.1422 23.5338C63.5073 26.5616 64.6163 29.7136 67.0147 31.5986L68.2506 30.0261ZM69.0766 33.1129C69.4537 32.0377 69.1538 30.8203 68.294 30.0623L66.9713 31.5625C67.2043 31.7678 67.304 32.1239 67.1893 32.4508L69.0766 33.1129ZM66.5318 34.9482C67.6938 34.9492 68.6973 34.1939 69.0766 33.1129L67.1893 32.4508C67.0767 32.7718 66.8017 32.9484 66.5334 32.9482L66.5318 34.9482ZM50.3104 23.2643C50.3104 26.1573 51.3215 28.3833 52.8661 30.0594C54.3904 31.7134 56.3948 32.7914 58.3472 33.5001C62.2413 34.9134 66.1871 34.9482 66.5326 34.9482V32.9482C66.2565 32.9482 62.5912 32.9128 59.0296 31.6201C57.2542 30.9757 55.5696 30.0417 54.3368 28.704C53.1244 27.3884 52.3104 25.6431 52.3104 23.2643H50.3104ZM50.3104 5.4875V23.2643H52.3104V5.4875H50.3104ZM43.7542 6.4875H51.3104V4.4875H43.7542V6.4875ZM44.7542 23.2643V5.4875H42.7542V23.2643H44.7542ZM28.532 34.9482C28.8775 34.9482 32.8233 34.9134 36.7174 33.5001C38.6698 32.7914 40.6742 31.7134 42.1985 30.0594C43.7431 28.3833 44.7542 26.1573 44.7542 23.2643H42.7542C42.7542 25.6431 41.9402 27.3884 40.7278 28.704C39.495 30.0417 37.8104 30.9757 36.035 31.6201C32.4734 32.9128 28.8081 32.9482 28.532 32.9482V34.9482ZM25.988 33.1129C26.3672 34.1939 27.3708 34.9492 28.5328 34.9482L28.5312 32.9482C28.2629 32.9484 27.9879 32.7719 27.8753 32.4508L25.988 33.1129ZM26.7706 30.0623C25.9108 30.8203 25.6108 32.0377 25.988 33.1129L27.8753 32.4508C27.7606 32.1239 27.8603 31.7678 28.0932 31.5625L26.7706 30.0623ZM28.965 23.9442C29.4488 26.2517 28.5953 28.6262 26.814 30.0261L28.0499 31.5986C30.4483 29.7136 31.5573 26.5616 30.9224 23.5338L28.965 23.9442ZM23.7253 20.7513C24.8117 20.8473 26.0142 21.1956 27.0094 21.7781C28.0069 22.362 28.7133 23.1288 28.9869 24.0295L30.9006 23.4484C30.4351 21.9155 29.2938 20.7979 28.0197 20.0521C26.7432 19.3049 25.2501 18.8782 23.9013 18.7591L23.7253 20.7513ZM10.6473 27.6256C13.6142 23.1197 18.5735 20.5375 23.7716 20.7543L23.855 18.756C17.9297 18.5089 12.3159 21.4547 8.97687 26.5257L10.6473 27.6256ZM9.00998 60.4213C3.8856 48.4309 4.5713 36.2019 10.628 27.6538L8.99612 26.4975C2.44459 35.744 1.8429 48.7404 7.1709 61.2073L9.00998 60.4213ZM23.4795 73.8171C19.6459 73.8171 16.4991 71.6117 14.0287 68.7425C11.564 65.88 9.889 62.4858 9.01051 60.4226L7.17037 61.2061C8.08503 63.3542 9.85585 66.9614 12.5131 70.0475C15.1645 73.1268 18.8156 75.8171 23.4795 75.8171V73.8171ZM29.2339 72.8619C27.2145 73.6856 25.2522 73.8296 23.4866 73.8172L23.4725 75.8171C25.3542 75.8304 27.6185 75.6808 29.9893 74.7138L29.2339 72.8619ZM33.5013 69.0038C32.4716 70.4156 31.2718 72.0308 29.2339 72.8619L29.9893 74.7138C32.6149 73.6429 34.1084 71.5655 35.1172 70.1823L33.5013 69.0038ZM33.5054 68.9982L33.5047 68.9992L35.1138 70.1869L35.1145 70.1859L33.5054 68.9982ZM33.7776 68.6268C33.6871 68.7491 33.5947 68.8758 33.502 69.0028L35.1179 70.1813C35.2113 70.0532 35.2996 69.9322 35.3853 69.8164L33.7776 68.6268ZM33.7396 58.3328C35.1342 62.3927 34.7013 65.9767 33.6421 68.8787L35.5208 69.5645C36.709 66.3093 37.1993 62.2485 35.6312 57.6831L33.7396 58.3328ZM27.326 52.5811C30.0444 53.7435 32.2543 55.6258 33.8065 58.485L35.5642 57.5308C33.7862 54.2556 31.2234 52.0725 28.1123 50.7421L27.326 52.5811ZM25.7757 49.4732C25.5221 50.7193 26.1267 52.0152 27.2919 52.5658L28.1463 50.7575C27.8539 50.6193 27.6566 50.2599 27.7355 49.8721L25.7757 49.4732ZM28.4039 47.2645C27.1025 47.2731 26.0305 48.2213 25.7757 49.4732L27.7355 49.8721C27.8133 49.4902 28.1184 49.2664 28.4171 49.2644L28.4039 47.2645ZM28.3521 47.2654C28.3467 47.2659 28.3337 47.267 28.3225 47.2681C28.3181 47.2685 28.3022 47.27 28.2831 47.2725C28.2749 47.2735 28.2516 47.2766 28.2223 47.2823C28.2081 47.285 28.1792 47.2908 28.1432 47.3008C28.1274 47.3052 28.0238 47.3325 27.9074 47.4002L28.9136 49.1287C28.8458 49.1681 28.7879 49.1911 28.7581 49.2021C28.7245 49.2145 28.6965 49.2229 28.6782 49.2279C28.6425 49.2378 28.6138 49.2436 28.6 49.2463C28.5714 49.2518 28.5489 49.2547 28.5419 49.2557C28.5251 49.2579 28.5125 49.259 28.5125 49.259C28.5098 49.2593 28.5091 49.2593 28.5199 49.2584L28.3521 47.2654ZM37.3137 43.9915C31.4949 47.0286 28.525 47.2509 28.3521 47.2654L28.52 49.2584C28.9642 49.221 32.191 48.9213 38.2392 45.7645L37.3137 43.9915ZM37.5181 43.8848L37.3137 43.9915L38.2391 45.7645L38.4435 45.6578L37.5181 43.8848ZM47.5296 41.5602C44.1052 41.4806 40.6684 42.2557 37.5215 43.883L38.4401 45.6596C41.2879 44.187 44.3926 43.4879 47.4831 43.5597L47.5296 41.5602ZM57.4912 43.883C54.3442 42.2557 50.9074 41.4806 47.4831 41.5602L47.5296 43.5597C50.6201 43.4879 53.7248 44.187 56.5726 45.6596L57.4912 43.883ZM57.699 43.9915L57.4946 43.8848L56.5692 45.6578L56.7735 45.7645L57.699 43.9915ZM66.6606 47.2654C66.4877 47.2509 63.5178 47.0286 57.699 43.9915L56.7735 45.7645C62.8217 48.9213 66.0485 49.221 66.4927 49.2584L66.6606 47.2654ZM67.1034 47.3991C66.9877 47.3321 66.8848 47.3051 66.8689 47.3007C66.8331 47.2907 66.8043 47.2849 66.7902 47.2822C66.7609 47.2766 66.7376 47.2735 66.7295 47.2725C66.7104 47.27 66.6945 47.2685 66.6902 47.2681C66.679 47.267 66.6659 47.2659 66.6605 47.2654L66.4927 49.2584C66.5036 49.2593 66.5029 49.2593 66.5002 49.259C66.5002 49.259 66.4876 49.2579 66.4708 49.2557C66.4638 49.2548 66.4415 49.2518 66.4129 49.2463C66.3991 49.2437 66.3705 49.2379 66.335 49.2281C66.3168 49.223 66.2889 49.2148 66.2555 49.2024C66.2259 49.1915 66.1683 49.1688 66.101 49.1298L67.1034 47.3991ZM69.237 49.4732C68.9822 48.2213 67.9101 47.2731 66.6088 47.2645L66.5955 49.2644C66.8943 49.2664 67.1994 49.4902 67.2772 49.8721L69.237 49.4732ZM67.7208 52.5658C68.886 52.0152 69.4906 50.7193 69.237 49.4732L67.2772 49.8721C67.3561 50.2599 67.1588 50.6193 66.8663 50.7575L67.7208 52.5658ZM61.2061 58.485C62.7584 55.6258 64.9682 53.7435 67.6867 52.5811L66.9004 50.7421C63.7893 52.0725 61.2265 54.2556 59.4484 57.5308L61.2061 58.485ZM61.3246 68.751C60.2993 65.8723 59.8987 62.334 61.273 58.3328L59.3815 57.6831C57.8363 62.1815 58.2896 66.1907 59.4405 69.422L61.3246 68.751ZM47.8696 30.3754V37.4861H49.8696V30.3754H47.8696ZM47.1667 29.5977C47.5148 29.5977 47.8696 29.9049 47.8696 30.3754H49.8696C49.8696 28.8823 48.6995 27.5977 47.1667 27.5977V29.5977ZM46.4638 30.3754C46.4638 29.9049 46.8186 29.5977 47.1667 29.5977V27.5977C45.6338 27.5977 44.4638 28.8823 44.4638 30.3754H46.4638ZM46.4638 37.4861V30.3754H44.4638V37.4861H46.4638ZM47.1667 38.2638C46.8186 38.2638 46.4638 37.9566 46.4638 37.4861H44.4638C44.4638 38.9792 45.6338 40.2638 47.1667 40.2638V38.2638ZM47.8696 37.4861C47.8696 37.9566 47.5148 38.2638 47.1667 38.2638V40.2638C48.6995 40.2638 49.8696 38.9792 49.8696 37.4861H47.8696ZM9.53856 38.8148C10.1713 35.5414 11.4772 32.4532 13.3636 29.7632L11.7262 28.6149C9.67596 31.5383 8.26033 34.8892 7.5749 38.4352L9.53856 38.8148ZM10.0874 39.753C9.73489 39.6757 9.44431 39.2838 9.53712 38.8221L7.57634 38.4279C7.28292 39.8875 8.1709 41.3801 9.65876 41.7066L10.0874 39.753ZM10.2254 39.7671C10.1773 39.767 10.1293 39.7619 10.0818 39.7518L9.66431 41.7078C9.84776 41.7469 10.0347 41.7668 10.2223 41.7671L10.2254 39.7671ZM10.9062 39.1531C10.8306 39.5396 10.5222 39.7662 10.2209 39.7671L10.2268 41.7671C11.5404 41.7633 12.6216 40.802 12.869 39.5369L10.9062 39.1531ZM14.4617 30.7193C12.7055 33.2329 11.4931 36.1111 10.9057 39.1555L12.8695 39.5344C13.4045 36.7617 14.5077 34.1454 16.1012 31.8648L14.4617 30.7193ZM22.6895 25.8223C19.3561 26.0772 16.3287 27.8946 14.4473 30.7406L16.1157 31.8435C17.6683 29.4949 20.1454 28.0227 22.8419 27.8165L22.6895 25.8223ZM23.4686 25.0417C23.4686 25.5122 23.1138 25.8194 22.7657 25.8194V27.8194C24.2985 27.8194 25.4686 26.5349 25.4686 25.0417H23.4686ZM22.7657 24.2641C23.1138 24.2641 23.4686 24.5713 23.4686 25.0417H25.4686C25.4686 23.5486 24.2985 22.2641 22.7657 22.2641V24.2641ZM13.3771 29.7436C15.5534 26.4777 19.0433 24.4632 22.8187 24.2626L22.7127 22.2655C18.285 22.5007 14.227 24.8616 11.7128 28.6345L13.3771 29.7436ZM80.9687 65.9565C83.0189 63.0331 84.4345 59.6822 85.12 56.1362L83.1563 55.7566C82.5236 59.03 81.2177 62.1183 79.3312 64.8082L80.9687 65.9565ZM69.9822 72.306C74.4099 72.0708 78.4678 69.7098 80.9821 65.9369L79.3178 64.8278C77.1414 68.0937 73.6516 70.1082 69.8761 70.3088L69.9822 72.306ZM67.2263 69.5297C67.2263 71.0228 68.3963 72.3074 69.9292 72.3074V70.3074C69.581 70.3074 69.2263 70.0001 69.2263 69.5297H67.2263ZM69.9292 66.752C68.3963 66.752 67.2263 68.0366 67.2263 69.5297H69.2263C69.2263 69.0592 69.581 68.752 69.9292 68.752V66.752ZM76.5792 62.7279C75.0266 65.0766 72.5494 66.5488 69.8529 66.7549L70.0054 68.7491C73.3388 68.4942 76.3662 66.6768 78.2476 63.8308L76.5792 62.7279ZM79.8254 55.037C79.2904 57.8097 78.1871 60.426 76.5937 62.7066L78.2331 63.8521C79.9894 61.3385 81.2017 58.4604 81.7892 55.4159L79.8254 55.037ZM82.4681 52.8043C81.1545 52.8081 80.0732 53.7694 79.8259 55.0345L81.7887 55.4184C81.8643 55.0318 82.1727 54.8052 82.4739 54.8043L82.4681 52.8043ZM83.0306 52.8637C82.8471 52.8245 82.6601 52.8046 82.4726 52.8043L82.4695 54.8043C82.5175 54.8044 82.5656 54.8095 82.613 54.8196L83.0306 52.8637ZM85.1185 56.1435C85.4119 54.6839 84.524 53.1913 83.0361 52.8649L82.6075 54.8184C82.96 54.8957 83.2506 55.2876 83.1578 55.7493L85.1185 56.1435Z" fill="#FFC59E" mask="url(#path-1-outside-1_27_648)"/>
</svg>
