<svg width="85" height="77" viewBox="0 0 85 77" fill="none" xmlns="http://www.w3.org/2000/svg">
<path d="M61.8858 0.322021C54.9352 0.322021 48.8945 3.77556 44.4171 10.3095C43.5322 11.6006 42.7929 12.89 42.1841 14.0882C41.5753 12.89 40.836 11.6006 39.9511 10.3095C35.4737 3.77556 29.433 0.322021 22.4824 0.322021C9.61063 0.322021 0.153809 11.5062 0.153809 25.2188C0.153809 40.5027 12.0495 50.9621 30.0559 66.7946C33.41 69.7437 36.8781 72.7933 40.5712 76.1346C41.034 76.5533 41.609 76.7627 42.1841 76.7627C42.7592 76.7627 43.3342 76.5533 43.797 76.1346C47.4901 72.7933 50.9583 69.7437 54.3123 66.7946C72.3187 50.962 84.2144 40.5027 84.2144 25.2188C84.2144 11.5098 74.762 0.322021 61.8858 0.322021ZM51.1394 62.862C48.2634 65.3907 45.3039 67.993 42.1841 70.7952C39.0644 67.993 36.1048 65.3907 33.2289 62.862C23.5504 54.3517 15.7489 47.4908 10.8346 40.7704H22.4824C23.4153 40.7704 24.268 40.2202 24.6851 39.3492L27.4078 33.6647L35.056 49.6327C35.4731 50.5037 36.3258 51.0538 37.2587 51.0538C38.1916 51.0538 39.0443 50.5037 39.4613 49.6327L42.1841 43.948L44.9069 49.6325C45.3239 50.5035 46.1767 51.0537 47.1095 51.0537C48.0424 51.0537 48.8952 50.5035 49.3122 49.6325L56.9604 33.6647L59.6832 39.3492C60.1002 40.2202 60.953 40.7532 61.8858 40.7532H73.5336C68.6194 47.4738 60.8178 54.3517 51.1394 62.862ZM63.4078 35.6286L59.1631 26.7663C58.746 25.8953 57.8933 25.3451 56.9604 25.3451C56.0275 25.3451 55.1748 25.8953 54.7578 26.7663L47.1095 42.7342L44.3868 37.0496C43.9697 36.1788 43.117 35.6286 42.1841 35.6286C41.2512 35.6286 40.3985 36.1788 39.9815 37.0498L37.2587 42.7342L29.6105 26.7662C29.1935 25.8953 28.3407 25.3451 27.4078 25.3451C26.475 25.3451 25.6222 25.8953 25.2052 26.7663L20.9603 35.6286H7.65359C5.97911 32.2803 5.07924 28.8717 5.07924 25.2188C5.07924 13.9565 12.561 5.46376 22.4824 5.46376C27.8096 5.46376 32.3118 8.06102 35.8643 13.1834C38.6608 17.2161 39.7982 21.3576 39.812 21.4085C40.1089 22.5194 41.0787 23.2885 42.1841 23.2885C43.291 23.2885 44.262 22.5174 44.5575 21.4037C44.5999 21.2443 48.9357 5.46376 61.8858 5.46376C71.8073 5.46376 79.289 13.9565 79.289 25.2188C79.289 28.8719 78.3891 32.2803 76.7147 35.6286H63.4078Z" fill="#FFC59E"/>
</svg>
