<svg width="67" height="78" viewBox="0 0 67 78" fill="none" xmlns="http://www.w3.org/2000/svg">
<path d="M64.4039 2.00063C64.0959 1.35715 63.5102 0.907466 62.83 0.79176C62.1495 0.676353 61.4578 0.90866 60.9699 1.41687C37.2438 26.13 44.4746 18.5926 35.9028 27.541L4.71776 55.0871C-0.643092 59.8224 -0.982472 68.3477 3.98294 73.5311C8.96479 78.7317 17.1243 78.3483 21.651 72.764L45.5451 43.2851C47.2875 41.1353 47.5095 38.0968 46.2726 35.7182L49.4914 32.3581L51.0084 33.9416C51.8444 34.8144 53.199 34.8162 54.0372 33.9468L60.4757 27.2697C66.8682 20.5964 68.4469 10.4416 64.4039 2.00063ZM18.3756 69.8706C15.4505 73.4794 10.2155 73.7025 7.01676 70.3637C3.81418 67.0203 4.03657 61.5559 7.48929 58.506L14.2277 52.5539L24.0773 62.8361L18.3756 69.8706ZM26.8585 59.4051L17.5145 49.6509L20.8012 46.7478L29.6395 55.9742L26.8585 59.4051ZM32.4206 52.543L24.0878 43.8445L27.3745 40.9413L35.2016 49.112L32.4206 52.543ZM42.2699 40.3918L37.9827 45.681L30.6613 38.0382L37.2348 32.2317L42.1492 37.3618C42.9319 38.1788 42.985 39.5098 42.2699 40.3918ZM43.4237 32.3581L40.3899 29.1911L43.4237 26.0239C43.748 26.3623 46.1216 28.8401 46.4577 29.1909L43.4237 32.3581ZM57.447 24.0975L52.5305 29.1961L46.4593 22.8583L61.6855 6.99867C63.3372 13.0022 61.7897 19.564 57.447 24.0975Z" fill="#FFC59E"/>
</svg>
