<svg width="75" height="78" viewBox="0 0 75 78" fill="none" xmlns="http://www.w3.org/2000/svg">
<path d="M67.5938 32.234H65.4485V13.9345C67.9457 13.0102 69.739 10.5194 69.739 7.59977C69.739 3.89523 66.8519 0.881348 63.3032 0.881348H46.1412C42.5925 0.881348 39.7054 3.89523 39.7054 7.59977C39.7054 10.5194 41.4987 13.0102 43.9959 13.9345V32.234H30.8383V13.9345C33.3355 13.0102 35.1288 10.5194 35.1288 7.59977C35.1288 3.89523 32.2417 0.881348 28.6931 0.881348H11.531C7.9823 0.881348 5.09521 3.89523 5.09521 7.59977C5.09521 10.5194 6.8885 13.0102 9.38573 13.9345V32.234H7.24047C3.69178 32.234 0.804688 35.2479 0.804688 38.9524V70.6036C0.804688 74.3081 3.69178 77.322 7.24047 77.322H67.5938C71.1424 77.322 74.0295 74.3081 74.0295 70.6036V38.9524C74.0295 35.2479 71.1424 32.234 67.5938 32.234ZM46.1412 5.36029H63.3032C64.4861 5.36029 65.4485 6.36492 65.4485 7.59977C65.4485 8.83461 64.4861 9.83924 63.3032 9.83924C62.1185 9.83924 61.158 10.8419 61.158 12.0787V23.2761H54.7222C53.5375 23.2761 52.5769 24.2788 52.5769 25.5156C52.5769 26.7523 53.5375 27.755 54.7222 27.755H61.158V32.234H48.2864V12.0787C48.2864 10.8419 47.3259 9.83924 46.1412 9.83924C44.9583 9.83924 43.9959 8.83461 43.9959 7.59977C43.9959 6.36492 44.9583 5.36029 46.1412 5.36029ZM54.7222 45.6708H61.158V57.1668C61.158 60.8713 58.2709 63.8852 54.7222 63.8852C51.1735 63.8852 48.2864 60.8713 48.2864 57.1668V36.7129H61.158V41.1919H54.7222C53.5375 41.1919 52.5769 42.1945 52.5769 43.4313C52.5769 44.6681 53.5375 45.6708 54.7222 45.6708ZM11.531 5.36029H28.6931C29.876 5.36029 30.8383 6.36492 30.8383 7.59977C30.8383 8.83461 29.876 9.83924 28.6931 9.83924C27.5083 9.83924 26.5478 10.8419 26.5478 12.0787V23.2761H20.112C18.9273 23.2761 17.9668 24.2788 17.9668 25.5156C17.9668 26.7523 18.9273 27.755 20.112 27.755H26.5478V32.234H13.6762V12.0787C13.6762 10.8419 12.7157 9.83924 11.531 9.83924C10.3481 9.83924 9.38573 8.83461 9.38573 7.59977C9.38573 6.36492 10.3481 5.36029 11.531 5.36029ZM20.112 45.6708H26.5478V57.1668C26.5478 60.8713 23.6607 63.8852 20.112 63.8852C16.5633 63.8852 13.6762 60.8713 13.6762 57.1668V36.7129H26.5478V41.1919H20.112C18.9273 41.1919 17.9668 42.1945 17.9668 43.4313C17.9668 44.6681 18.9273 45.6708 20.112 45.6708ZM69.739 70.6036C69.739 71.8385 68.7767 72.8431 67.5938 72.8431H7.24047C6.05757 72.8431 5.09521 71.8385 5.09521 70.6036V38.9524C5.09521 37.7175 6.05757 36.7129 7.24047 36.7129H9.38573V57.1668C9.38573 63.341 14.1975 68.3641 20.112 68.3641C26.0265 68.3641 30.8383 63.341 30.8383 57.1668V36.7129H43.9959V57.1668C43.9959 63.341 48.8077 68.3641 54.7222 68.3641C60.6367 68.3641 65.4485 63.341 65.4485 57.1668V36.7129H67.5938C68.7767 36.7129 69.739 37.7175 69.739 38.9524V70.6036Z" fill="#FFC59E"/>
</svg>
