<svg width="76" height="75" viewBox="0 0 76 75" fill="none" xmlns="http://www.w3.org/2000/svg">
<g id="logo">
<rect id="Rectangle" x="0.25" y="0.59259" width="75" height="74.0741" fill="#FFFEFE"/>
<path id="Combined Shape" d="M9.55729 49.3184C10.5051 48.8009 10.8742 49.6452 10.2599 49.817C8.90192 50.197 9.32794 52.0316 10.6863 52.3849C11.6609 52.6385 14.3369 52.2909 15.0003 52.1261C15.1327 52.0687 16.4262 52.0162 17.7583 52.0027C19.0904 51.989 21.2108 52.5539 21.7759 52.6355C22.3411 52.7172 23.2628 52.8806 23.8346 52.8873C24.4065 52.8941 25.3451 52.5334 25.362 52.5299C25.3787 52.5265 25.4258 52.4757 25.5369 52.3463C25.6479 52.2169 26.0145 51.9618 26.0414 51.9652C26.0684 51.9686 26.1087 52.0605 26.1289 52.2237C26.1491 52.3871 26.0617 52.5028 26.0617 52.5028C26.0617 52.5028 26.5831 52.3667 26.5831 52.4482C26.5831 52.5299 26.4452 52.7681 26.4316 52.7919C26.4183 52.8158 26.9699 53.2343 27.1078 53.4284C27.2458 53.6222 27.192 53.612 27.2323 53.8401C27.2726 54.068 27.6259 54.6464 27.6393 54.7043C27.6529 54.7622 27.6427 54.7723 27.5855 54.82C27.5283 54.8677 27.5385 54.8404 27.4712 54.9051C27.4038 54.9697 27.1616 55.2657 26.8792 55.4019C26.5965 55.5379 26.5495 55.4223 26.3274 55.2929C26.1055 55.1637 25.0694 55.327 24.8742 55.4768C24.7146 55.5993 24.3703 55.9314 24.2504 56.0481L24.2082 56.0893C24.2082 56.0893 24.1543 56.171 24.0872 56.4841C24.0198 56.7971 24.0467 57.1101 24.1275 57.6274C24.2082 58.1446 25.0491 59.3423 25.1769 59.4444C25.3048 59.5465 25.5335 59.6553 25.695 59.8324C25.8564 60.0093 25.7151 60.1182 25.5402 60.1726C25.3654 60.227 24.9347 60.1386 24.8002 60.0841C24.6657 60.0296 24.5984 59.6486 24.1543 59.3356C23.7103 59.0225 23.0106 58.4508 22.903 58.165C22.7953 57.8791 22.7011 57.0898 22.7011 57.0898C22.7011 57.0898 22.6069 57.3075 22.3109 57.6749C22.0148 58.0425 21.3286 58.655 21.3286 58.9136C21.3286 59.1722 21.4093 59.5941 21.5035 59.7575C21.5977 59.9207 21.7323 59.9344 21.8533 59.9752L21.9149 59.9953C22.0186 60.0297 22.127 60.075 22.2167 60.2339C22.3243 60.4244 22.2032 60.4788 22.0014 60.4788C21.7996 60.4788 21.517 60.5741 21.1671 60.438C20.8173 60.3018 20.1715 59.145 20.0235 58.8591C19.8755 58.5733 20.1983 58.0426 20.333 57.7975C20.4675 57.5525 20.6559 57.2259 20.6559 57.2259C20.6559 57.2259 19.418 57.2395 18.7721 57.0762C18.1263 56.9128 17.385 56.8585 17.385 56.8585C17.385 56.8585 17.3311 57.158 17.2235 57.5935C17.1159 58.0291 16.6046 58.5327 16.5507 58.696C16.4969 58.8593 16.8468 59.1995 17.0486 59.4174C17.2503 59.6351 17.6541 59.7849 17.8155 59.8938C17.977 60.0026 18.1653 60.1796 18.0577 60.3973C17.95 60.6152 17.8559 60.4246 17.6675 60.4654C17.4791 60.5063 17.0082 60.5742 16.6853 60.5063C16.3624 60.4381 16.3489 60.0298 15.9183 59.6624C15.4878 59.2948 15.0437 58.8865 15.0841 58.6416C15.1244 58.3965 15.1783 57.294 15.1648 57.2261C15.1514 57.158 14.5997 57.6072 14.0076 57.8929C13.4156 58.1788 12.2047 58.4715 12.1307 58.6688C12.0566 58.8662 11.8145 59.7782 11.8548 60.0503C11.8952 60.3225 11.9692 60.479 12.0432 60.6219L12.0745 60.6825C12.117 60.767 12.1105 60.7774 12.0432 60.8398C11.9625 60.9146 11.3772 60.8466 11.2493 60.6695C11.1215 60.4927 10.8861 59.4174 10.9736 59.1792C11.061 58.9411 11.532 57.3758 11.7069 57.2396C11.8818 57.1034 12.5142 56.7224 12.864 55.8649C13.1412 55.1857 13.0553 54.1393 13.1748 53.5442C11.2534 53.526 8.81559 53.7244 8.5 51.0394C8.41189 50.29 8.90142 49.6765 9.55729 49.3184ZM45.9865 14.6667L63.0559 55.5166C63.8875 57.505 65.3647 58.4993 67.4874 58.4993H67.7501V59.8934H46.3147V58.4993C50.2976 58.3697 52.2891 57.4402 52.2891 55.7111C52.2891 55.2356 52.2015 54.7925 52.0265 54.3819L48.8752 46.8927H33.4798L31.1164 52.8581C30.81 53.6362 30.6568 54.3926 30.6568 55.1275C30.6568 57.2457 32.4076 58.3697 35.9089 58.4993V59.8934L27.1912 59.8957C27.8026 58.1524 29.1688 54.7205 29.2729 54.4435C29.4071 54.0857 29.6044 53.5924 29.6011 53.23C29.5977 52.8675 29.7081 52.3299 29.5045 51.6455C29.301 50.961 29.0589 50.3746 29.0233 50.003C28.9879 49.6316 29.1019 48.6521 29.1399 48.0267C29.178 47.4013 29.3484 46.977 29.4277 46.8974C29.507 46.8178 29.4812 46.7526 29.6988 46.738C29.9164 46.7233 30.0388 46.6791 30.3518 46.7097C30.6646 46.7402 31.0169 46.6392 31.2827 46.6273C31.5484 46.6156 31.8306 46.6349 32.1822 46.4441C32.534 46.2533 32.5951 46.0848 32.7342 45.9269C32.8733 45.769 33.0474 45.4923 33.1051 45.3403C33.1627 45.1884 33.1964 45.0935 32.9061 45.0297C32.6158 44.9659 32.1504 44.7376 31.8286 44.6742C31.5069 44.6108 31.1172 44.5304 30.959 44.3847C30.8008 44.239 30.7292 44.0627 30.6161 43.9519C30.503 43.8412 30.4399 43.7834 30.1836 43.6989C29.9273 43.6144 29.4893 43.3553 29.332 43.3149C29.1746 43.2744 28.9728 43.2303 28.9296 43.144C28.8863 43.0578 28.6283 42.4854 28.5209 42.2208C28.4134 41.9562 28.2046 41.5075 28.1242 41.5169C28.0438 41.5266 27.9676 42.2227 27.7995 42.6383C27.6314 43.0539 27.3887 43.4424 27.3793 43.6558C27.37 43.8692 27.1607 44.2059 26.9966 44.4759C26.8326 44.7459 26.2781 45.7637 26.0617 46.4969C25.8452 47.2301 25.305 48.1508 25.0288 48.4231C24.7526 48.6955 23.1925 49.6592 22.7817 49.9379C22.6588 50.0212 22.5634 50.0868 22.4778 50.1437L37.2163 14.6667H45.9865ZM40.9313 27.8942L34.4974 44.2991H47.7919L40.9313 27.8942Z" fill="#59443F"/>
</g>
</svg>
