<svg width="214" height="153" viewBox="0 0 214 153" fill="none" xmlns="http://www.w3.org/2000/svg">
<g id="mask">
<mask id="mask0_27_453" style="mask-type:alpha" maskUnits="userSpaceOnUse" x="0" y="0" width="214" height="153">
<rect id="Rounded Rectangle" width="213.018" height="152.881" rx="20" fill="#FFFEFE"/>
</mask>
<g mask="url(#mask0_27_453)">
<g id="ic / surgery">
<g id="Group 11">
<path id="Vector" d="M186.315 82.3067C180.401 82.3067 175.589 87.3299 175.589 93.5041C175.589 98.9117 179.28 103.436 184.17 104.476V127.245C184.17 129.715 182.245 131.724 179.879 131.724C177.514 131.724 175.589 129.715 175.589 127.245C175.589 122.416 175.589 127.225 175.589 118.288C175.589 113.348 171.739 109.33 167.008 109.33C162.276 109.33 158.427 113.348 158.427 118.288C158.427 121.467 158.427 124.063 158.427 127.245C158.427 129.715 156.502 131.724 154.136 131.724C151.733 131.724 149.703 129.673 149.703 127.245V109.062C152.294 108.414 154.631 106.632 155.985 104.158C155.985 104.158 169.625 79.0955 170.123 78.1821C170.892 76.7766 171.298 75.178 171.298 73.5593C171.298 68.5422 167.48 64.4408 162.717 64.2507V62.0022C162.717 60.7654 161.757 59.7627 160.572 59.7627C159.387 59.7627 158.427 60.7654 158.427 62.0022V70.9601C158.427 72.1968 159.387 73.1995 160.572 73.1995C161.757 73.1995 162.717 72.1968 162.717 70.9601V68.7354C165.113 68.9202 167.008 71.0123 167.008 73.5593C167.008 74.3999 166.797 75.2301 166.395 75.9648L158.068 91.2646H137.047L128.718 75.9601C128.318 75.2301 128.107 74.3999 128.107 73.5593C128.107 71.0123 130.002 68.9202 132.398 68.7354V70.9601C132.398 72.1968 133.358 73.1995 134.543 73.1995C135.728 73.1995 136.688 72.1968 136.688 70.9601V62.0022C136.688 60.7654 135.728 59.7627 134.543 59.7627C133.358 59.7627 132.398 60.7654 132.398 62.0022V64.2507C127.635 64.4407 123.817 68.5422 123.817 73.5593C123.817 75.178 124.223 76.7764 124.99 78.1774C125.393 78.9178 139.133 104.163 139.133 104.163C140.485 106.633 142.821 108.415 145.412 109.062V127.245C145.412 132.226 149.417 136.203 154.136 136.203C158.868 136.203 162.717 132.185 162.717 127.245C162.717 122.416 162.717 127.225 162.717 118.288C162.717 115.818 164.642 113.809 167.008 113.809C169.374 113.809 171.298 115.818 171.298 118.288C171.298 121.467 171.298 124.063 171.298 127.245C171.298 132.185 175.148 136.203 179.879 136.203C184.611 136.203 188.46 132.185 188.46 127.245V104.476C193.35 103.436 197.041 98.9117 197.041 93.5041C197.041 87.3299 192.23 82.3067 186.315 82.3067ZM147.557 104.851C145.699 104.851 143.81 103.681 142.86 101.946L139.485 95.7436H155.63L152.257 101.941C151.304 103.681 149.416 104.851 147.557 104.851ZM186.315 100.223C182.766 100.223 179.879 97.2086 179.879 93.5041C179.879 89.7996 182.766 86.7857 186.315 86.7857C189.864 86.7857 192.751 89.7996 192.751 93.5041C192.751 97.2086 189.864 100.223 186.315 100.223Z" fill="#FFC59E"/>
<path id="Vector_2" d="M186.315 95.7436C187.5 95.7436 188.46 94.7409 188.46 93.5041C188.46 92.2673 187.5 91.2646 186.315 91.2646C185.13 91.2646 184.17 92.2673 184.17 93.5041C184.17 94.7409 185.13 95.7436 186.315 95.7436Z" fill="#FFC59E"/>
</g>
</g>
</g>
</g>
</svg>
