<svg width="75" height="78" viewBox="0 0 75 78" fill="none" xmlns="http://www.w3.org/2000/svg">
<path d="M56.7163 25.0507C56.6992 24.011 56.6064 22.9903 56.4434 21.994C61.5437 25.6534 67.2351 23.7262 69.196 18.4471C71.5932 11.9937 65.9724 5.11505 59.1533 2.19342C53.1385 -0.383766 46.5011 0.291959 42.9923 6.10564C41.2256 5.54801 39.3532 5.24673 37.4145 5.24673C35.4757 5.24673 33.6033 5.54786 31.8366 6.10564C28.3283 0.292108 21.6908 -0.383916 15.6759 2.19342C8.85686 5.1152 3.23613 11.9937 5.63325 18.4473C7.58973 23.7145 13.2735 25.6618 18.3858 21.994C18.2227 22.9903 18.13 24.011 18.1128 25.0509C11.6973 26.4299 0.804688 29.7662 0.804688 36.5973C0.804688 38.0702 1.334 39.4101 2.19539 40.5842C2.19568 40.5845 2.19854 40.5885 2.19839 40.5882C2.19868 40.5885 2.19897 40.5888 2.19911 40.5891L18.1087 62.2868V70.4854C18.1087 71.297 18.5293 72.0448 19.2079 72.4405C19.5416 72.635 27.4926 77.2034 37.4146 77.2034C47.3366 77.2034 55.2877 72.635 55.6213 72.4405C56.3001 72.0448 56.7206 71.2968 56.7206 70.4854V62.2868C56.7423 62.2571 72.6303 40.5884 72.6303 40.5884C73.4882 39.437 74.0244 38.063 74.0244 36.597C74.0245 29.7686 63.1395 26.4316 56.7163 25.0507ZM57.524 6.33661C62.3371 8.39887 66.564 13.1439 65.1958 16.8281C64.0123 20.0144 60.536 20.4479 57.3879 16.9602L57.3567 16.9258C55.3919 14.7493 52.9703 12.0676 50.7747 10.866C49.642 9.73091 48.3775 8.73763 47.0075 7.91529C50.1357 3.65058 55.7274 5.56682 57.524 6.33661ZM37.4145 9.72553C45.6943 9.72553 52.4302 16.7573 52.4302 25.4007V34.358C52.4302 38.3229 51.0316 42.0579 48.4776 44.9565C45.7122 45.2678 42.7289 45.4694 39.5594 45.5327V39.7642L43.2213 35.9416C43.8348 35.3011 44.0183 34.338 43.6864 33.5012C43.3543 32.6644 42.5723 32.1188 41.7046 32.1188H33.1241C32.2564 32.1188 31.4742 32.6645 31.1423 33.5012C30.8103 34.338 30.9938 35.3011 31.6074 35.9416L35.2693 39.7641V45.5325C32.0775 45.4688 29.067 45.2622 26.3512 44.9564C23.7972 42.0578 22.3986 38.3228 22.3986 34.3578V25.4005C22.3988 16.7573 29.1348 9.72553 37.4145 9.72553ZM17.4711 16.9272L17.4411 16.9604C14.2934 20.4476 10.8171 20.0152 9.63316 16.8281C8.24732 13.097 12.5799 8.36109 17.3048 6.33661C19.1016 5.56667 24.6933 3.65043 27.8214 7.91544C26.4515 8.73778 25.1869 9.73091 24.0542 10.8662C21.8582 12.068 19.436 14.7502 17.4711 16.9272ZM5.2614 37.2954C5.14928 37.0493 5.09479 36.8208 5.09479 36.5972C5.09479 34.9712 8.67995 31.7893 18.1084 29.6284V34.3578C18.1084 37.816 18.937 41.1379 20.4943 44.0808C16.5891 43.3404 6.94028 40.9789 5.2614 37.2954ZM11.9303 46.4925C16.2603 47.9625 21.6426 49.0337 27.6571 49.5926L29.7284 62.7838C25.6938 61.7828 22.6798 60.3056 21.6682 59.7735L11.9303 46.4925ZM52.4303 69.1024C50.0795 70.2503 44.2214 72.7249 37.4146 72.7249C30.6402 72.7249 24.7571 70.2459 22.3989 69.0995V65.0335C25.6707 66.4249 31.1499 68.2462 37.4146 68.2462C43.6794 68.2462 49.1584 66.4249 52.4303 65.0335V69.1024ZM53.1594 59.7755C51.5762 60.613 45.1005 63.7679 37.4146 63.7679C36.3168 63.7679 35.2422 63.7028 34.2023 63.5887L32.0533 49.9033C33.8024 49.989 35.5924 50.0333 37.4145 50.0333C47.35 50.0333 56.3341 48.7214 62.8985 46.4928L53.1594 59.7755ZM69.2296 37.858C67.5202 40.1785 62.1988 42.5894 54.3346 44.0809C55.8919 41.1379 56.7206 37.8162 56.7206 34.358V29.6285C66.1491 31.7895 69.7342 34.9712 69.7342 36.5973C69.7342 36.8994 69.6322 37.3116 69.2296 37.858Z" fill="#FFC59E"/>
</svg>
