<svg width="75" height="77" viewBox="0 0 75 77" fill="none" xmlns="http://www.w3.org/2000/svg">
<path d="M74.0355 16.1476V2.56149C74.0355 1.32471 73.075 0.322021 71.8903 0.322021C63.9271 0.322021 55.7815 2.72363 48.7768 7.11151C48.7245 7.08598 48.6721 7.0606 48.6178 7.03955C45.0392 5.65316 41.2727 4.95027 37.4231 4.95027C33.4752 4.95027 29.6367 5.68944 26.0501 7.10135C19.0522 2.72378 10.8961 0.322021 2.95593 0.322021C1.77117 0.322021 0.810669 1.32471 0.810669 2.56149V16.1476C0.810669 20.8674 3.01099 25.4601 6.70641 28.484C5.74476 31.6975 5.2442 35.0795 5.2442 38.5424C5.2442 47.243 8.49813 55.7242 14.1949 61.9375C15.6398 68.2288 20.8844 72.2838 26.6968 72.2838C27.3819 72.2838 28.0582 72.2258 28.7221 72.117C30.719 75.0188 33.9207 76.7627 37.4231 76.7627C40.9254 76.7627 44.1272 75.0188 46.1241 72.117C46.788 72.2258 47.4643 72.2838 48.1494 72.2838C54.009 72.2838 59.1962 68.1966 60.6475 61.9416C66.3465 55.7278 69.602 47.2448 69.602 38.5424C69.602 36.0833 69.3486 33.657 68.8486 31.288C72.947 27.9267 74.0355 19.9331 74.0355 16.1476ZM5.10119 16.1476V4.86517C10.6361 5.19482 16.2194 6.78648 21.2853 9.46639C15.8461 12.7689 11.2296 17.8241 8.37199 24.0583C6.30339 21.9273 5.10119 19.0642 5.10119 16.1476ZM37.4231 72.2838C35.7752 72.2838 34.2392 71.6383 33.0742 70.5208C34.7964 69.4919 36.2925 68.0558 37.4231 66.2654C38.5525 68.0541 40.0485 69.491 41.772 70.5208C40.6069 71.6383 39.0709 72.2838 37.4231 72.2838ZM35.414 51.1937C35.7195 50.3451 36.5048 49.7397 37.4231 49.7397C38.3414 49.7397 39.1267 50.3451 39.4322 51.1937L37.4231 53.2911L35.414 51.1937ZM56.478 60.8947C55.4893 65.1739 51.9742 67.8048 48.1494 67.8048C42.8906 67.8048 38.8488 62.9431 39.6733 57.2762L43.2306 53.5627C43.6329 53.1427 43.8589 52.5731 43.8589 51.9792C43.8589 48.2747 40.9718 45.2608 37.4231 45.2608C33.8744 45.2608 30.9873 48.2747 30.9873 51.9792C30.9873 52.5731 31.2133 53.1427 31.6157 53.5627L35.1731 57.2763C35.9996 62.9593 31.9401 67.8048 26.6968 67.8048C21.8927 67.8048 18.1158 63.7536 18.1158 58.6976C18.1158 56.305 19.0083 54.0553 20.629 52.3633C21.4668 51.4888 21.4668 50.0709 20.629 49.1963C19.7914 48.3218 18.433 48.3218 17.5952 49.1963C16.0286 50.8317 14.9188 52.8154 14.3252 54.979C11.2425 50.1761 9.53472 44.4186 9.53472 38.5424C9.53472 29.2048 13.7685 20.881 20.3364 15.5498L56.6306 60.0704C56.5299 60.3345 56.4786 60.6145 56.478 60.8947ZM64.8725 43.6951L55.8932 32.6169C55.1279 31.6729 53.7744 31.5548 52.8697 32.3538C51.9654 33.1528 51.8525 34.5658 52.6177 35.51L63.4951 48.9301C62.5073 51.6763 61.1346 54.2623 59.4177 56.5786L23.9433 13.0636C26.4053 11.6385 29.0938 10.5906 31.9377 9.9961L52.6177 35.51C53.3837 36.4549 54.7375 36.5713 55.6412 35.773C56.5455 34.9741 56.6583 33.5612 55.8932 32.6169L37.1022 9.43354C40.4315 9.39383 43.6431 9.95355 46.6923 11.0752C47.3837 11.7969 63.0434 28.1445 63.7347 28.8662C64.7812 31.9664 65.3115 35.2191 65.3115 38.5424C65.3115 40.2775 65.1617 42.002 64.8725 43.6951ZM67.3538 26.366C67.2801 26.2544 67.1987 26.1481 67.1063 26.0516L52.0332 10.3165C57.4929 7.12017 63.6382 5.22692 69.745 4.86487V16.1476C69.745 19.5575 68.8559 23.8887 67.3538 26.366Z" fill="#FFC59E"/>
<path d="M24.5515 31.824C21.0028 31.824 18.1157 34.8379 18.1157 38.5424C18.1157 42.2469 21.0028 45.2608 24.5515 45.2608C28.1002 45.2608 30.9873 42.2469 30.9873 38.5424C30.9873 34.8379 28.1002 31.824 24.5515 31.824ZM24.5515 40.7819C23.3686 40.7819 22.4062 39.7772 22.4062 38.5424C22.4062 37.3075 23.3686 36.3029 24.5515 36.3029C25.7344 36.3029 26.6968 37.3075 26.6968 38.5424C26.6968 39.7772 25.7344 40.7819 24.5515 40.7819Z" fill="#FFC59E"/>
</svg>
