<svg width="75" height="78" viewBox="0 0 75 78" fill="none" xmlns="http://www.w3.org/2000/svg">
<path d="M73.3956 1.53729C72.558 0.6627 71.1996 0.6627 70.3618 1.53729L60.3267 12.0131C57.9349 10.8236 54.9803 11.2599 53.0029 13.3242L48.1913 18.3472C45.7994 17.1578 42.8448 17.5942 40.8675 19.6584C40.0782 20.4825 21.0121 40.3859 19.9779 41.4653C17.4935 40.4131 14.8134 39.8608 12.0522 39.8608C12.0502 39.8608 12.0479 39.8608 12.0458 39.8608C8.49723 39.8608 5.61043 42.8744 5.61043 46.5788C5.61043 50.2832 8.49738 53.2967 12.0458 53.2967C12.8357 53.2967 13.6193 53.4202 14.3705 53.6531L5.97798 62.4142L4.461 60.8306C3.62335 59.956 2.26497 59.956 1.42717 60.8306C0.589379 61.7052 0.589379 63.1231 1.42717 63.9977C2.70317 65.3297 12.2484 75.2942 13.5626 76.6661C14.4003 77.5407 15.7588 77.5407 16.5964 76.6661C17.4342 75.7915 17.4342 74.3736 16.5964 73.499L15.0795 71.9154L23.472 63.1543C23.6951 63.9387 23.8134 64.7566 23.8134 65.5811C23.8134 67.376 24.4827 69.0632 25.6979 70.3318C26.9133 71.6004 28.5294 72.2991 30.2486 72.2991C33.797 72.2991 36.6839 69.2854 36.6839 65.5817C36.6847 62.6966 36.1556 59.8963 35.1468 57.3006C36.2311 56.1686 54.9821 36.594 56.0363 35.4937C58.0244 33.4186 58.4356 30.3326 57.2952 27.8454L62.1041 22.8253C64.0922 20.7502 64.5034 17.6642 63.363 15.177L73.3953 4.70405C74.2336 3.82991 74.2336 2.41188 73.3956 1.53729ZM12.0461 68.7485L9.01224 65.5813L18.1137 56.0801L21.1477 59.2473L12.0461 68.7485ZM30.2492 67.8205C29.0627 67.8205 28.1043 66.82 28.1043 65.5814C28.1043 62.0756 26.7096 58.7192 24.4422 56.3524L20.887 52.6409C18.6249 50.2793 15.412 48.8179 12.0462 48.8179C10.8635 48.8179 9.90138 47.8135 9.90138 46.5789C9.90138 45.3444 10.8636 44.3399 12.0468 44.3399C12.0488 44.3399 12.0499 44.3399 12.0519 44.3399C16.5342 44.3399 20.7495 46.1631 23.9209 49.4738L27.4762 53.1852C30.6489 56.4972 32.3954 60.8995 32.3941 65.5814C32.3939 66.816 31.4318 67.8205 30.2492 67.8205ZM39.3509 46.5788L37.8339 44.9952C36.9963 44.1206 35.6379 44.1206 34.8001 44.9952C33.9623 45.8698 33.9623 47.2876 34.8001 48.1622L36.3171 49.7458L33.0263 53.1812C32.2903 52.0597 31.4507 51.0002 30.5099 50.018L26.9546 46.3066C26.0137 45.3244 24.999 44.448 23.9247 43.6798L33.2831 33.9104L42.3848 43.4117L39.3509 46.5788ZM53.0031 32.3269L51.4861 33.9105L49.9692 32.3271C49.1317 31.4525 47.7734 31.4525 46.9354 32.3271C46.0975 33.2016 46.0976 34.6195 46.9354 35.4941L48.4523 37.0777L45.4183 40.2449L36.3168 30.7436L43.9015 22.8256C44.7381 21.9525 46.0991 21.9525 46.9354 22.8256L53.0031 29.1598C53.8416 30.0352 53.8416 31.4516 53.0031 32.3269ZM59.0707 19.6585L54.5199 24.4092L51.4861 21.2421L56.0368 16.4914C56.8737 15.6182 58.2344 15.6183 59.0707 16.4914C59.9092 17.3668 59.9092 18.7832 59.0707 19.6585Z" fill="#FFC59E"/>
</svg>
