<svg width="74" height="78" viewBox="0 0 74 78" fill="none" xmlns="http://www.w3.org/2000/svg">
<path d="M69.9501 14.1976C69.9485 14.196 69.9474 14.1946 69.9458 14.1932C69.9449 14.1923 69.9436 14.1909 69.9428 14.19C69.9406 14.1878 69.9385 14.1855 69.9363 14.1833C69.9355 14.1824 69.9343 14.1812 69.9333 14.1803C69.9323 14.1791 69.9312 14.1781 69.9302 14.1769C69.9289 14.1757 69.927 14.1737 69.9259 14.1724C69.9256 14.1721 69.9253 14.1718 69.925 14.1715C68.2638 12.4438 66.2591 11.2889 64.139 10.7061C63.5632 8.41427 62.4407 6.35828 60.8434 4.69107C55.826 -0.546762 47.6621 -0.546762 42.6446 4.69107C38.0578 9.47936 37.7316 16.8278 41.2531 21.9755L34.0457 29.4994C33.5387 30.0286 33.3185 30.7875 33.4592 31.5216L34.9758 39.4376C35.1457 40.3239 35.8093 41.0165 36.6582 41.1939L44.2411 42.7769C44.9521 42.9253 45.6769 42.6881 46.1783 42.1646L53.3857 34.6407C58.3665 38.3539 65.4184 37.9281 69.9429 33.1881C74.9577 27.9535 74.96 19.4362 69.9501 14.1976ZM66.9097 30.0216C66.8895 30.0427 66.8693 30.0634 66.849 30.0843C66.8483 30.0851 66.8475 30.086 66.8467 30.0867C63.1293 33.8905 57.5111 33.0609 54.8422 30.0886C54.8128 30.0588 54.8004 30.0456 54.7772 30.0216C54.7761 30.0204 54.7739 30.018 54.7725 30.0167C54.3758 29.6052 53.8409 29.3632 53.2351 29.366C53.2348 29.3659 53.2241 29.366 53.2238 29.3662C52.6488 29.3765 52.1185 29.6313 51.7714 29.9935C51.7707 29.9935 43.9572 38.1503 43.9567 38.1509L38.9014 37.0955L37.8904 31.8183L45.6777 23.689C46.0799 23.2691 46.306 22.6997 46.306 22.1058C46.306 21.5119 46.0799 20.9426 45.6777 20.5228C42.3247 17.0224 42.3247 11.3578 45.6777 7.85739C49.0226 4.3656 54.4653 4.36575 57.8103 7.85739C58.5024 8.57984 59.0602 9.41621 59.4703 10.3378C56.6467 10.6517 53.9035 11.9358 51.7441 14.1902C50.9065 15.0646 50.9065 16.482 51.7441 17.3565C52.5816 18.2309 53.9396 18.2309 54.7772 17.3565C58.2923 13.6873 63.7823 14.1006 66.9017 17.348C66.9021 17.3484 66.9028 17.3492 66.9032 17.3496C66.9039 17.3504 66.9048 17.3513 66.9057 17.352C66.9071 17.3535 66.9085 17.355 66.91 17.3565C70.2543 20.848 70.2546 26.5297 66.9097 30.0216Z" fill="#FFC59E"/>
<path d="M26.7804 24.7499L23.7473 21.5836C22.9098 20.7091 21.5518 20.7091 20.7142 21.5836C19.8765 22.458 19.8765 23.8754 20.7142 24.7499L23.7473 27.9162C24.5848 28.7906 25.9427 28.7906 26.7804 27.9162C27.6179 27.0418 27.6179 25.6242 26.7804 24.7499Z" fill="#FFC59E"/>
<path d="M25.2635 30.3411H19.1973C18.0129 30.3411 17.0525 31.3435 17.0525 32.5799C17.0525 33.8164 18.0127 34.8188 19.1973 34.8188H25.2635C26.448 34.8188 27.4082 33.8164 27.4082 32.5799C27.4082 31.3435 26.448 30.3411 25.2635 30.3411Z" fill="#FFC59E"/>
<path d="M31.248 17.7612C30.0635 17.7612 29.1033 18.7636 29.1033 20.0001V26.3327C29.1033 27.5692 30.0635 28.5716 31.248 28.5716C32.4324 28.5716 33.3926 27.5692 33.3926 26.3327V20.0001C33.3928 18.7636 32.4326 17.7612 31.248 17.7612Z" fill="#FFC59E"/>
<path d="M54.0785 53.2467L51.0454 50.0804C50.2077 49.206 48.8498 49.206 48.0123 50.0804C47.1746 50.9548 47.1746 52.3723 48.0123 53.2467L51.0454 56.413C51.8829 57.2875 53.241 57.2875 54.0785 56.413C54.9162 55.5386 54.9162 54.121 54.0785 53.2467Z" fill="#FFC59E"/>
<path d="M43.4015 49.425C42.2171 49.425 41.2568 50.4274 41.2568 51.6639V57.9966C41.2568 59.2331 42.2171 60.2354 43.4015 60.2354C44.586 60.2354 45.5462 59.2331 45.5462 57.9966V51.6639C45.5464 50.4274 44.586 49.425 43.4015 49.425Z" fill="#FFC59E"/>
<path d="M55.5951 43.0283H49.5287C48.3443 43.0283 47.384 44.0307 47.384 45.2672C47.384 46.5037 48.3443 47.5061 49.5287 47.5061H55.5949C56.7796 47.5061 57.7398 46.5037 57.7398 45.2672C57.7398 44.0307 56.7796 43.0283 55.5951 43.0283Z" fill="#FFC59E"/>
<path d="M40.9669 46.2682C40.7382 45.4765 40.1104 44.8807 39.3338 44.7184L33.153 43.4278L31.9168 36.9756C31.7619 36.167 31.1938 35.5129 30.4382 35.2729C29.683 35.0328 28.8619 35.2456 28.3016 35.8268L21.1227 43.276C16.1 39.541 9.0643 40.0235 4.56183 44.7238C-0.455506 49.9616 -0.455506 58.484 4.56183 63.7218C6.15962 65.3899 8.13068 66.5618 10.3277 67.1627C12.8553 77.1842 24.873 80.5149 31.86 73.2209C36.3713 68.5114 36.8403 61.1896 33.2551 55.9416L40.425 48.5017C40.9871 47.9187 41.1954 47.0601 40.9669 46.2682ZM28.8314 54.2181C28.8306 54.219 28.8297 54.2202 28.8289 54.2211C28.8283 54.2217 28.8276 54.2223 28.827 54.2229C27.9935 55.0909 27.9885 56.5134 28.827 57.3892C32.1849 60.8947 32.1723 66.5622 28.827 70.0546C23.843 75.2573 15.2841 72.3227 14.3033 64.9608C13.8937 61.8875 14.9203 59.2412 16.6944 57.3892C17.5321 56.5147 17.5321 55.0973 16.6944 54.2229C15.8569 53.3484 14.499 53.3484 13.6613 54.2229C11.5019 56.4771 10.2744 59.3404 9.97375 62.2878C9.09004 61.8595 8.28743 61.2784 7.59494 60.5556C4.25005 57.0638 4.25005 51.3822 7.59494 47.8902C10.94 44.3983 16.3826 44.3984 19.7275 47.8902C20.5635 48.7629 21.9178 48.7648 22.7561 47.895L28.4936 41.9413L29.2272 45.7697C29.3971 46.6561 30.0607 47.3487 30.9096 47.5261L34.5486 48.2859L28.8314 54.2181Z" fill="#FFC59E"/>
</svg>
