<svg width="70" height="57" viewBox="0 0 70 57" fill="none" xmlns="http://www.w3.org/2000/svg">
<path d="M47.808 20.1109C48.0578 20.0243 48.3749 19.6018 48.3912 19.3339C48.7578 12.8708 43.5761 4.25478 41.7101 1.37817C40.2079 1.9949 38.7462 2.99173 37.3967 4.51085C37.3967 4.51085 34.7017 6.37356 33.7456 15.4241C38.7862 22.1476 45.0496 21.0481 47.808 20.1109Z" fill="white"/>
<path d="M67.7982 8.63892L59.5404 6.56293C59.5404 6.56293 59.305 4.51093 56.9634 3.66774C55.2566 3.05166 49.3757 -0.429568 43.5894 0.799991C45.7771 4.22958 50.6435 12.6833 50.2588 19.445C50.2015 20.5082 49.3809 21.6066 48.3944 21.9424C47.4461 22.2674 45.7441 22.7173 43.6756 22.7173C40.6787 22.7173 36.9146 21.768 33.5235 18.1184C33.4569 19.2782 33.419 20.5326 33.4123 21.8899C33.3743 28.8906 24.7403 35.5283 24.7403 35.5283L23.5903 37.9828C25.9374 43.217 29.6168 47.6907 34.1848 50.9375C34.3919 47.5939 35.2059 44.9747 36.1488 43.0063C37.9345 39.2677 40.4387 37.1928 41.7167 36.3148C41.9915 28.5986 44.4232 26.3435 46.4518 25.8279C47.0749 25.6689 47.7318 25.8059 48.2486 26.2054C48.8367 26.6575 49.215 27.4036 49.2534 28.2047C49.3576 30.2787 50.5479 31.7348 51.1123 32.313C52.0274 32.4008 52.9011 32.5501 53.7235 32.7554L53.799 32.0278L54.4276 25.7413C54.5342 24.6802 55.4601 23.7858 56.485 23.6346C60.3769 23.0507 69.0483 20.6763 69.6118 11.0276C69.6767 9.96335 68.8041 8.89305 67.7982 8.63892ZM54.9326 10.8802C54.35 10.8802 53.8769 10.3951 53.8769 9.79436C53.8769 9.19363 54.35 8.7085 54.9326 8.7085C55.5165 8.7085 55.9873 9.19363 55.9873 9.79436C55.9852 10.394 55.5155 10.8802 54.9326 10.8802Z" fill="white"/>
<path d="M59.543 39.6082C59.2308 36.8727 55.4818 34.6187 50.6373 34.2984C50.6373 34.2984 48.0651 32.2617 47.8924 28.7462C47.8641 28.2139 47.4778 27.6849 46.9762 27.8124C45.6817 28.1405 43.4837 29.8521 43.3742 37.6694C43.3742 37.6694 36.3335 41.3279 35.8247 51.8751C40.3379 54.6678 45.5971 56.306 51.2107 56.4013L51.1478 54.8904C51.1245 54.3582 51.4994 53.7745 51.983 53.588L57.9802 51.2715C57.9802 51.2715 60.7926 51.434 61.9625 49.2593C62.5548 48.163 63.1045 47.397 63.5094 46.9035C63.8407 46.4974 63.8355 45.917 63.4648 45.546C62.2395 44.3279 59.7763 41.6524 59.543 39.6082ZM55.9855 42.256C55.4039 42.256 54.9319 41.7721 54.9319 41.171C54.9319 40.5685 55.4039 40.0836 55.9855 40.0836C56.5692 40.0836 57.0413 40.5685 57.0413 41.171C57.0415 41.7719 56.5694 42.256 55.9855 42.256Z" fill="white"/>
<path d="M0.384521 12.8657C0.384521 14.6948 1.86734 16.1776 3.69649 16.1776H8.53086V21.1395C8.53086 23.0635 10.0905 24.6232 12.0145 24.6232C13.9385 24.6232 15.4981 23.0635 15.4981 21.1395V16.1776H20.3325C22.1616 16.1776 23.6445 14.6948 23.6445 12.8657C23.6445 11.0365 22.1616 9.55368 20.3325 9.55368H15.4981V4.59179C15.4981 2.66783 13.9385 1.10815 12.0145 1.10815C10.0905 1.10815 8.53086 2.66783 8.53086 4.59179V9.55368H3.6965C1.86734 9.55368 0.384521 11.0365 0.384521 12.8657Z" fill="white"/>
</svg>
