<svg width="85" height="77" viewBox="0 0 85 77" fill="none" xmlns="http://www.w3.org/2000/svg">
<path d="M67.0414 20.7059C68.3894 20.7059 69.4822 19.5651 69.4822 18.1579C69.4822 16.7507 68.3894 15.6099 67.0414 15.6099C65.6934 15.6099 64.6006 16.7507 64.6006 18.1579C64.6006 19.5651 65.6934 20.7059 67.0414 20.7059Z" fill="#FFC59E"/>
<path d="M62.1598 30.8983C63.5078 30.8983 64.6006 29.7575 64.6006 28.3503C64.6006 26.943 63.5078 25.8022 62.1598 25.8022C60.8118 25.8022 59.719 26.943 59.719 28.3503C59.719 29.7575 60.8118 30.8983 62.1598 30.8983Z" fill="#FFC59E"/>
<path d="M71.9228 30.8983C73.2708 30.8983 74.3636 29.7575 74.3636 28.3503C74.3636 26.943 73.2708 25.8022 71.9228 25.8022C70.5747 25.8022 69.4819 26.943 69.4819 28.3503C69.4819 29.7575 70.5747 30.8983 71.9228 30.8983Z" fill="#FFC59E"/>
<path d="M62.1598 5.41806H58.3329C56.6006 2.37046 53.4177 0.322021 49.7838 0.322021H35.1569C31.523 0.322021 28.3402 2.37046 26.6079 5.41806H22.7811C10.6683 5.41806 0.813721 15.7053 0.813721 28.3502V48.7344C0.813721 50.7757 1.57558 52.6952 2.95888 54.1391C3.81284 55.0307 4.84092 55.674 5.96256 56.0365C6.7638 63.1842 9.35091 69.9599 13.506 75.7434C14.7074 77.4157 17.2219 76.9467 17.7965 74.9467L22.3542 59.0872C23.6895 60.5558 25.5748 61.4745 27.6628 61.4745C29.557 61.4745 31.2855 60.7198 32.5869 59.4831C33.9769 60.7687 35.7411 61.4745 37.5888 61.4745C39.4831 61.4745 41.2115 60.7198 42.5129 59.4831C43.9029 60.7687 45.6671 61.4745 47.5148 61.4745C49.3889 61.4745 51.0999 60.7349 52.3965 59.5219C53.6931 60.7351 55.4041 61.4745 57.2781 61.4745C59.3657 61.4745 61.2521 60.5577 62.5873 59.0895L67.1443 74.9467C67.7198 76.9498 70.2349 77.4135 71.4348 75.7434C75.5899 69.9599 78.177 63.1842 78.9784 56.0365C80.1 55.674 81.1279 55.0307 81.9821 54.1391C83.3654 52.6952 84.1271 50.7757 84.1272 48.7346V28.3502C84.1272 15.7053 74.2726 5.41806 62.1598 5.41806ZM35.1571 5.41806H49.784C52.5703 5.41806 54.8373 7.78449 54.8373 10.6933C54.8373 11.7382 54.5438 12.7501 53.9886 13.6196L47.7088 23.4531C46.7974 24.8802 45.0831 25.8022 43.3414 25.8022H41.5996C39.8952 25.8022 38.1574 24.9017 37.2321 23.4531L30.9522 13.6196C30.3972 12.7502 30.1036 11.7383 30.1036 10.6933C30.1036 7.78449 32.3707 5.41806 35.1571 5.41806ZM5.69537 28.3502C5.69537 18.5154 13.3601 10.5141 22.7811 10.5141H25.2264C25.2254 10.5741 25.222 10.6333 25.222 10.6935C25.222 12.7477 25.799 14.7372 26.8905 16.4464L33.1704 26.2799C33.7134 27.1301 34.3827 27.8833 35.1434 28.5228C35.0497 32.5903 31.6635 35.9943 27.6628 35.9943H19.9208C14.7294 35.9943 9.79108 37.7038 5.69537 40.8668V28.3502ZM14.6472 68.1712C12.6735 64.3425 11.3906 60.1689 10.858 55.833C11.7664 55.4535 12.6008 54.8833 13.3135 54.1391C14.9528 52.428 17.1865 51.4054 19.4974 51.2936L14.6472 68.1712ZM30.1036 53.8304C30.1036 55.2354 29.0087 56.3784 27.6628 56.3784C26.3169 56.3784 25.222 55.2354 25.222 53.8304V51.2824H27.6628C28.4826 51.2824 29.2972 51.2335 30.1036 51.1395V53.8304ZM40.0296 53.8304C40.0296 55.2354 38.9347 56.3784 37.5888 56.3784C36.2019 56.3784 34.9853 55.1878 34.9853 53.8304V49.9714C36.7648 49.316 38.4607 48.4245 40.0296 47.3157C40.0296 49.4461 40.0296 50.9615 40.0296 53.8304ZM49.9557 53.8304C49.9557 55.2354 48.8607 56.3784 47.5148 56.3784C46.128 56.3784 44.9113 55.1878 44.9113 53.8304C44.9113 50.9811 44.9113 49.4431 44.9113 47.3157C46.4803 48.4244 48.1761 49.316 49.9557 49.9714V53.8304ZM59.719 53.8304C59.719 55.2354 58.624 56.3784 57.2781 56.3784C55.9323 56.3784 54.8373 55.2354 54.8373 53.8304V51.1395C55.6438 51.2337 56.4584 51.2824 57.2781 51.2824H59.719V53.8304ZM70.2938 68.1712L65.4435 51.2936C67.7545 51.4056 69.9882 52.428 71.6274 54.1391C72.3401 54.8833 73.1746 55.4535 74.0829 55.833C73.5503 60.1689 72.2674 64.3425 70.2938 68.1712ZM78.5302 50.5357C77.572 51.5359 76.0261 51.5241 75.0791 50.5357C72.4314 47.7716 68.765 46.1864 65.0201 46.1864H57.2781C52.3186 46.1864 47.5915 43.9363 44.3087 40.0134C43.8451 39.4594 43.1751 39.1416 42.4705 39.1416C41.7659 39.1416 41.0958 39.4594 40.6322 40.0134C37.3495 43.9363 32.6222 46.1864 27.6628 46.1864H22.7737C22.7637 46.1864 22.7536 46.1862 22.7437 46.1864H19.9208C16.1759 46.1864 12.5097 47.7717 9.86186 50.5357C8.91742 51.5212 7.37157 51.5386 6.4107 50.5357C5.45926 49.5423 5.45926 47.9263 6.41118 46.9324C10.0179 43.1651 14.8158 41.0903 19.9208 41.0903H27.6628C30.9185 41.0903 34.0041 39.7713 36.3513 37.3763C38.16 35.5307 39.3467 33.2283 39.8095 30.7318C40.3967 30.8408 40.9957 30.8983 41.5996 30.8983H43.3414C43.9984 30.8983 44.6495 30.8306 45.2859 30.7019C46.3463 36.6067 51.3186 41.0903 57.2781 41.0903H65.0201C70.1252 41.0903 74.923 43.1651 78.5302 46.9331C79.4818 47.9263 79.4818 49.5424 78.5302 50.5357ZM79.2456 40.8668C75.1495 37.7037 70.2114 35.9943 65.0201 35.9943H57.2781C53.2524 35.9943 49.9758 32.585 49.9565 28.3871C50.6518 27.7774 51.2656 27.0704 51.7705 26.2799L58.0504 16.4464C59.142 14.737 59.719 12.7477 59.719 10.6933C59.719 10.6332 59.7155 10.5739 59.7146 10.5139H62.1598C71.5809 10.5139 79.2456 18.5152 79.2456 28.3501V40.8668Z" fill="#FFC59E"/>
<path d="M17.8993 20.7059C19.2474 20.7059 20.3401 19.5651 20.3401 18.1579C20.3401 16.7507 19.2474 15.6099 17.8993 15.6099C16.5513 15.6099 15.4585 16.7507 15.4585 18.1579C15.4585 19.5651 16.5513 20.7059 17.8993 20.7059Z" fill="#FFC59E"/>
<path d="M13.0177 30.8983C14.3658 30.8983 15.4586 29.7575 15.4586 28.3503C15.4586 26.943 14.3658 25.8022 13.0177 25.8022C11.6697 25.8022 10.5769 26.943 10.5769 28.3503C10.5769 29.7575 11.6697 30.8983 13.0177 30.8983Z" fill="#FFC59E"/>
<path d="M22.7812 30.8983C24.1292 30.8983 25.222 29.7575 25.222 28.3503C25.222 26.943 24.1292 25.8022 22.7812 25.8022C21.4331 25.8022 20.3403 26.943 20.3403 28.3503C20.3403 29.7575 21.4331 30.8983 22.7812 30.8983Z" fill="#FFC59E"/>
</svg>
