<svg width="75" height="78" viewBox="0 0 75 78" fill="none" xmlns="http://www.w3.org/2000/svg">
<path d="M63.3151 23.3067C57.4006 23.3067 52.5888 28.3299 52.5888 34.5041C52.5888 39.9117 56.2798 44.4357 61.1698 45.4762V68.2455C61.1698 70.7152 59.2451 72.7244 56.8793 72.7244C54.5135 72.7244 52.5888 70.7152 52.5888 68.2455C52.5888 63.4163 52.5888 68.2249 52.5888 59.2876C52.5888 54.3482 48.7393 50.3297 44.0078 50.3297C39.2762 50.3297 35.4267 54.3482 35.4267 59.2876C35.4267 62.4667 35.4267 65.0629 35.4267 68.2455C35.4267 70.7152 33.502 72.7244 31.1362 72.7244C28.7329 72.7244 26.7027 70.6734 26.7027 68.2455V50.0617C29.2938 49.4143 31.6306 47.6322 32.9848 45.1585C32.9848 45.1585 46.6253 20.0955 47.1225 19.1821C47.8918 17.7766 48.2984 16.178 48.2984 14.5593C48.2984 9.54218 44.4796 5.44081 39.7174 5.25075V3.00217C39.7174 1.76538 38.7569 0.762695 37.5721 0.762695C36.3874 0.762695 35.4269 1.76538 35.4269 3.00217V11.9601C35.4269 13.1968 36.3874 14.1995 37.5721 14.1995C38.7569 14.1995 39.7174 13.1968 39.7174 11.9601V9.73537C42.1126 9.9202 44.0079 12.0123 44.0079 14.5593C44.0079 15.3999 43.7967 16.2301 43.3946 16.9648L35.0676 32.2646H14.0472L5.71787 16.9601C5.31828 16.2301 5.10705 15.3999 5.10705 14.5593C5.10705 12.0123 7.00231 9.9202 9.39757 9.73537V11.9601C9.39757 13.1968 10.3581 14.1995 11.5428 14.1995C12.7276 14.1995 13.6881 13.1968 13.6881 11.9601V3.00217C13.6881 1.76538 12.7276 0.762695 11.5428 0.762695C10.3581 0.762695 9.39757 1.76538 9.39757 3.00217V5.25075C4.63538 5.44066 0.816528 9.54218 0.816528 14.5593C0.816528 16.178 1.22313 17.7764 1.98984 19.1774C2.39272 19.9178 16.1327 45.1634 16.1327 45.1634C17.4848 47.6334 19.8211 49.4148 22.4121 50.0619V68.2455C22.4121 73.2258 26.4175 77.2034 31.1362 77.2034C35.8678 77.2034 39.7172 73.1849 39.7172 68.2455C39.7172 63.4163 39.7172 68.2249 39.7172 59.2876C39.7172 56.8179 41.642 54.8086 44.0078 54.8086C46.3735 54.8086 48.2983 56.8179 48.2983 59.2876C48.2983 62.4667 48.2983 65.0629 48.2983 68.2455C48.2983 73.1849 52.1477 77.2034 56.8793 77.2034C61.6109 77.2034 65.4603 73.1849 65.4603 68.2455V45.4762C70.3504 44.4359 74.0414 39.9117 74.0414 34.5041C74.0414 28.3299 69.2296 23.3067 63.3151 23.3067ZM24.5574 45.8508C22.6992 45.8508 20.8105 44.6814 19.8604 42.9459L16.4849 36.7436H32.63L29.2571 42.9409C28.3043 44.6814 26.4156 45.8508 24.5574 45.8508ZM63.3151 41.2225C59.7664 41.2225 56.8793 38.2086 56.8793 34.5041C56.8793 30.7996 59.7664 27.7857 63.3151 27.7857C66.8638 27.7857 69.7509 30.7996 69.7509 34.5041C69.7509 38.2086 66.8638 41.2225 63.3151 41.2225Z" fill="#FFC59E"/>
<path d="M63.3152 36.7436C64.5 36.7436 65.4604 35.7409 65.4604 34.5041C65.4604 33.2673 64.5 32.2646 63.3152 32.2646C62.1304 32.2646 61.1699 33.2673 61.1699 34.5041C61.1699 35.7409 62.1304 36.7436 63.3152 36.7436Z" fill="#FFC59E"/>
</svg>
