<svg width="65" height="78" viewBox="0 0 65 78" fill="none" xmlns="http://www.w3.org/2000/svg">
<path d="M32.6432 23.2761C33.828 23.2761 34.7884 22.2734 34.7884 21.0366C34.7884 19.7998 33.828 18.7971 32.6432 18.7971C31.4584 18.7971 30.4979 19.7998 30.4979 21.0366C30.4979 22.2734 31.4584 23.2761 32.6432 23.2761Z" fill="#FFC59E"/>
<path d="M48.4937 41.5742C50.6716 38.2874 51.9507 34.2953 51.9507 29.9945V21.0394C51.9507 21.0384 51.9508 21.0375 51.9508 21.0366C51.9508 21.0353 51.9507 21.0341 51.9507 21.0327C51.9487 9.92091 43.2883 0.881348 32.6434 0.881348C21.9973 0.881348 13.336 9.923 13.336 21.0366V29.9945C13.336 34.2953 14.6152 38.2873 16.7929 41.5741C7.45574 43.0644 0.464478 51.5582 0.464478 61.4964V75.0826C0.464478 76.3193 1.42498 77.322 2.60974 77.322H62.677C63.8618 77.322 64.8223 76.3193 64.8223 75.0826V61.4964C64.8223 51.5917 57.8623 43.0693 48.4937 41.5742ZM32.6434 5.36029C40.1954 5.36029 46.4621 11.2102 47.5063 18.7971H43.1539C42.1572 13.6923 37.8235 9.83924 32.6434 9.83924C27.4633 9.83924 23.1296 13.6923 22.1329 18.7971H17.7804C18.8246 11.2102 25.0913 5.36029 32.6434 5.36029ZM39.0791 21.0366C39.0791 24.7411 36.1921 27.755 32.6434 27.755C29.0947 27.755 26.2076 24.7411 26.2076 21.0366C26.2076 17.3321 29.0947 14.3182 32.6434 14.3182C36.1921 14.3182 39.0791 17.3321 39.0791 21.0366ZM17.6266 23.2761H22.1329C23.1294 28.3809 27.4633 32.234 32.6434 32.234C37.8235 32.234 42.1572 28.3809 43.1539 23.2761H47.6602V29.9945C47.6602 38.7208 40.9236 45.8201 32.6434 45.8201C28.9302 45.8201 25.5281 44.3918 22.904 42.03C22.861 41.9878 22.8167 41.947 22.7702 41.9085C19.6199 39.0054 17.6266 34.7408 17.6266 29.9945V23.2761ZM15.4813 59.2569C16.6642 59.2569 17.6266 60.2616 17.6266 61.4964C17.6266 62.7313 16.6642 63.7359 15.4813 63.7359C14.2984 63.7359 13.336 62.7313 13.336 61.4964C13.336 60.2616 14.2984 59.2569 15.4813 59.2569ZM60.5317 72.8431H4.755V61.4964C4.755 55.4427 8.11576 49.9155 13.336 47.3211V55.1632C10.8391 56.0876 9.04552 58.5769 9.04552 61.4964C9.04552 65.201 11.9326 68.2148 15.4813 68.2148C19.03 68.2148 21.9171 65.201 21.9171 61.4964C21.9171 58.5769 20.1235 56.0876 17.6266 55.1632V45.9752C18.5954 45.8325 19.5865 45.788 20.59 45.8438C23.8957 48.6299 28.0874 50.2991 32.6434 50.2991C36.6095 50.2991 40.2997 49.0343 43.3697 46.8689V50.5243C38.4796 51.5647 34.7886 56.0888 34.7886 61.4964V63.7359C33.6039 63.7359 32.6434 64.7386 32.6434 65.9754C32.6434 67.2122 33.6039 68.2148 34.7886 68.2148H39.0791C40.2639 68.2148 41.2244 67.2122 41.2244 65.9754C41.2244 64.7386 40.2639 63.7359 39.0791 63.7359V61.4964C39.0791 57.7919 41.9662 54.778 45.5149 54.778C49.0636 54.778 51.9507 57.7919 51.9507 61.4964V63.7359C50.7659 63.7359 49.8054 64.7386 49.8054 65.9754C49.8054 67.2122 50.7659 68.2148 51.9507 68.2148H56.2412C57.426 68.2148 58.3865 67.2122 58.3865 65.9754C58.3865 64.7386 57.426 63.7359 56.2412 63.7359V61.4964C56.2412 56.089 52.5502 51.5648 47.6602 50.5243V45.9749C55.0671 47.0667 60.5317 53.7678 60.5317 61.4964V72.8431Z" fill="#FFC59E"/>
</svg>
