<svg width="46" height="49" viewBox="0 0 46 49" fill="none" xmlns="http://www.w3.org/2000/svg">
<path fill-rule="evenodd" clip-rule="evenodd" d="M11 23.6066C11 16.3751 16.6075 10.4918 23.5 10.4918C30.3925 10.4918 36 16.3751 36 23.6066C36 30.838 30.3925 36.7213 23.5 36.7213C16.6075 36.7213 11 30.838 11 23.6066ZM13.6597 23.6067C13.6597 29.2996 18.0743 33.9308 23.5001 33.9308C28.926 33.9308 33.3406 29.2996 33.3406 23.6067C33.3406 17.9137 28.926 13.2825 23.5001 13.2825C18.0743 13.2825 13.6597 17.9137 13.6597 23.6067Z" fill="#FFC59E"/>
<path d="M30.0144 23.2016H24.3968V16.1151C24.3968 15.5187 23.936 15.0352 23.3676 15.0352C22.7992 15.0352 22.3384 15.5187 22.3384 16.1151V24.2814C22.3384 24.8778 22.7992 25.3613 23.3676 25.3613H30.0144C30.5828 25.3613 31.0436 24.8778 31.0436 24.2814C31.0436 23.6851 30.5828 23.2016 30.0144 23.2016Z" fill="#FFC59E"/>
</svg>
