<svg width="46" height="49" viewBox="0 0 46 49" fill="none" xmlns="http://www.w3.org/2000/svg">
<path d="M35.4395 32.2404L31.5787 28.1892C30.8097 27.3856 29.5362 27.41 28.7404 28.2452L26.7953 30.2856C26.6724 30.2145 26.5452 30.1403 26.4114 30.0615C25.1831 29.3475 23.5019 28.3687 21.7329 26.5113C19.9585 24.6499 19.0248 22.8834 18.3422 21.5938C18.2701 21.4572 18.2011 21.3255 18.1329 21.2004L19.4384 19.8328L20.0802 19.1586C20.8772 18.3221 20.8992 16.9864 20.132 16.1804L16.2711 12.1288C15.5039 11.324 14.2298 11.3484 13.4328 12.1849L12.3447 13.333L12.3744 13.364C12.0096 13.8525 11.7047 14.4158 11.4778 15.0233C11.2686 15.6016 11.1384 16.1535 11.0789 16.7064C10.5691 21.1406 12.5004 25.1932 17.7418 30.6924C24.987 38.2934 30.8256 37.7192 31.0775 37.6911C31.6261 37.6223 32.1518 37.4848 32.6861 37.2671C33.2601 37.0318 33.7967 36.7124 34.262 36.3304L34.2858 36.3526L35.3881 35.2201C36.1835 34.3838 36.2064 33.0476 35.4395 32.2404Z" fill="#FFC59E"/>
</svg>
